<?xml version="1.0" encoding="UTF-8"?>
<svg xmlns="http://www.w3.org/2000/svg" version="1.1" viewBox="0 0 64 64">
  <defs>
    <style>
      .cls-1 {
        fill: none;
      }

      .cls-2 {
        display: none;
        fill: #c9ab9b;
      }

      .cls-3 {
        fill: #664434;
      }
    </style>
  </defs>
  <!-- Generator: Adobe Illustrator 28.7.1, SVG Export Plug-In . SVG Version: 1.2.0 Build 142)  -->
  <g>
    <g id="Layer_1">
      <rect class="cls-2" x="-1.4" y="-1.4" width="66.8" height="66.5"/>
      <rect class="cls-3" x="-1.8" y="-1.4" width="67.2" height="66.5"/>
      <path class="cls-1" d="M0,0h64v64H0V.7c.1.2.3.3.5.3.3,0,.6-.1.6-.5C1.1.2.8.1.6.1c-.3,0-.5.1-.6.4V0ZM.6,15.2c-.3,0-.4.2-.4.5,0,.2.2.3.3.4.3-.1.5-.1.5-.4s-.2-.5-.4-.5ZM.1,34.5c0,.3.2.4.5.4s.4-.2.3-.5c0-.2-.2-.3-.3-.3-.3,0-.5.1-.5.4ZM.5,31.1c.3,0,.4-.2.4-.5,0-.2-.2-.3-.4-.3-.3.1-.4.2-.4.5.1.2.2.3.4.3ZM.1,23.3c0,.2.2.3.3.3.3,0,.5,0,.5-.3s-.2-.4-.4-.4-.3.1-.4.4ZM.2,19.5c0,.1.3.2.4.2.2,0,.3-.1.4-.3,0-.2-.1-.4-.3-.4-.3.1-.5.2-.5.5ZM.2,38.3c0,.2.1.3.3.4.2,0,.3-.1.4-.3,0-.2-.1-.3-.3-.4-.2,0-.3.1-.4.3ZM.5,45.2c-.3.1-.4.3-.3.5.1.1.3.3.4.3.3,0,.5-.2.4-.4,0-.3-.3-.4-.5-.4ZM.1,49.5c0,.3.3.4.5.4s.3-.1.3-.4c.1-.3-.1-.5-.3-.5-.3,0-.5.2-.5.5ZM.9,11.8c0-.2-.1-.3-.3-.4-.3.1-.4.2-.4.5,0,.2.2.3.4.3.2,0,.4-.1.3-.4ZM.9,8.1c0-.3-.1-.5-.4-.5-.2.1-.3.2-.4.4,0,.3.1.5.4.5.2,0,.3-.2.4-.4ZM.1,4.4c0,.2.2.3.4.3.3,0,.4-.2.4-.5,0-.2-.1-.3-.4-.4-.2.1-.4.3-.4.6ZM.4,27.4c.3,0,.5-.1.5-.4s-.2-.5-.4-.4c-.1,0-.3.2-.4.3-.1.3.1.4.3.5ZM.5,42.3c.2,0,.3-.1.4-.3,0-.3-.1-.5-.4-.5-.2,0-.4.1-.4.3-.1.3.1.4.4.5ZM1,60.7c-.1-.3-.3-.4-.5-.3-.1.1-.3.2-.3.4,0,.3.2.4.5.4.2-.1.3-.2.3-.5ZM1,56.9c0-.2-.2-.4-.5-.4s-.4.2-.4.5.2.4.4.5c.4-.1.6-.3.5-.6ZM2.8,62.6c-.1-.3-.2-.4-.5-.4-.2,0-.3.2-.4.4,0,.3.2.5.4.5.4,0,.5-.2.5-.5ZM4.8,8.1c0-.2-.1-.3-.3-.4-.3,0-.5.2-.6.4,0,.2.1.4.3.4.3,0,.5-.1.6-.4ZM4.7,11.8c0-.1-.2-.3-.4-.3-.3,0-.4.2-.4.5,0,.2.2.3.4.3.3-.1.4-.3.4-.5ZM4.8,4.4c0-.2-.1-.5-.4-.5-.3-.1-.5.1-.5.4s.1.5.4.5c.2,0,.4-.2.5-.4ZM3.9,19.4c0,.3.2.5.4.5.3,0,.4-.2.5-.5,0-.3-.2-.4-.4-.5-.3.1-.5.2-.5.5ZM4.7,23.2c0-.3-.1-.5-.4-.5s-.4.2-.5.4c0,.3.1.5.4.5s.5-.2.5-.4ZM4.2,26.6c-.2,0-.3.2-.3.4,0,.3.1.5.4.4.2,0,.3-.1.4-.3-.1-.3-.2-.5-.5-.5ZM4.7,38.2c-.1-.2-.2-.4-.4-.3-.3,0-.4.2-.4.5,0,.2.2.3.4.3.3,0,.4-.2.4-.5ZM4.3,41.4c-.3,0-.4.2-.4.5,0,.2.1.3.3.4.3,0,.5-.1.5-.4,0-.3-.1-.5-.4-.5ZM4.7,34.5c0-.3-.2-.4-.5-.4-.3.1-.4.2-.4.5,0,.2.2.3.4.3.3,0,.5-.1.5-.4ZM3.8,45.7c0,.3.3.4.5.4.3,0,.4-.2.4-.5-.1-.3-.3-.4-.5-.4s-.4.2-.4.5ZM3.9,53.2c0,.3.1.5.4.5s.4-.2.5-.4c0-.3-.1-.5-.4-.6-.3,0-.5.2-.5.5ZM4.3,49.8c.2,0,.3-.1.4-.3,0-.2-.1-.3-.2-.4-.2-.1-.4,0-.4.1-.2.4-.1.6.2.6ZM3.9,57c0,.3.1.5.4.5.4,0,.5-.3.5-.6s-.2-.4-.5-.4-.5.2-.4.5ZM4.8,60.7c0-.3-.2-.4-.5-.4s-.4.2-.4.5.2.4.4.4c.3,0,.5-.2.5-.5ZM4.8,15.6c-.1-.3-.2-.4-.5-.4s-.4.2-.4.5c.1.2.2.3.4.3.3,0,.5-.1.5-.4ZM6,14.1c.2.1.5,0,.6-.2.1-.3,0-.5-.3-.6-.2-.1-.4,0-.5.2s0,.4.2.6ZM6.2,10.4c.3,0,.4-.2.4-.5,0-.2-.2-.3-.3-.3-.3,0-.4.2-.4.5,0,.2.1.3.3.3ZM6.7,47.4c-.1-.3-.3-.4-.5-.3-.1.1-.3.3-.3.4,0,.3.2.4.5.4.2,0,.3-.2.3-.5ZM6.3,50.9c-.2-.1-.3.1-.4.2-.1.3,0,.5.3.6.2,0,.3-.1.4-.2.1-.3,0-.5-.3-.6ZM6.7,43.8c0-.2-.2-.3-.4-.3s-.4.1-.4.3.1.3.3.3c.3,0,.4-.1.5-.3ZM6,40.4c0,.1.2.2.3.2.2,0,.3-.2.3-.4,0-.1-.2-.1-.3-.2-.2,0-.3.2-.3.4ZM6.7,28.8c0-.1-.2-.3-.3-.3-.3-.1-.4.1-.4.4s.2.4.4.4c.2-.1.3-.3.3-.5ZM6.3,32.3c-.2,0-.4.1-.4.3.1.2.2.4.4.4s.3-.1.4-.3c0-.3-.2-.4-.4-.4ZM6.6,21.3c0-.2-.1-.3-.4-.3-.2,0-.3.2-.3.4s.2.3.4.3c.2-.1.3-.2.3-.4ZM6.3,24.8c-.2,0-.3.2-.3.4s.2.3.4.3.3-.2.3-.4c-.1-.2-.2-.4-.4-.3ZM6,17.8c.2.1.5,0,.6-.2.1-.3,0-.5-.3-.6-.2-.1-.4,0-.5.1-.1.4,0,.6.2.7ZM5.7,36.4c0,.3.2.4.5.4s.4-.2.5-.4c0-.3-.2-.5-.5-.4-.2-.1-.4.1-.5.4ZM6.7,62.7c0-.3-.1-.5-.4-.5s-.5.1-.5.4c0,.2.2.4.3.4.3.1.5,0,.6-.3ZM6.3,59.4c.3,0,.4-.2.4-.5s-.3-.4-.5-.4c-.3,0-.4.2-.4.5,0,.2.2.3.5.4ZM8.2,60.4c-.2-.1-.4,0-.5.1-.2.2-.1.5.1.6s.5.1.6-.2c.2-.2.1-.4-.2-.5ZM8.1,57.3c.2,0,.3-.1.3-.4-.1-.2-.2-.3-.4-.3s-.3.2-.3.4.2.3.4.3ZM8.5,45.6c0-.3-.2-.4-.4-.4-.3.1-.4.3-.3.5,0,.2.1.3.3.3.2.1.4-.1.4-.4ZM8,49.2c-.2,0-.3.2-.3.4s.2.3.4.2c.2,0,.3-.2.3-.4-.1-.2-.2-.3-.4-.2ZM7.7,15.5c0,.3.1.5.4.5.2,0,.3-.1.4-.3,0-.3-.1-.5-.4-.5-.2,0-.4.1-.4.3ZM8.1,12.2c.3,0,.4-.2.4-.5-.1-.2-.2-.3-.4-.3-.3,0-.4.2-.4.5,0,.2.2.4.4.3ZM7.7,19.2c-.1.3,0,.5.3.5.2,0,.4-.1.4-.3.1-.3-.1-.5-.3-.5-.2,0-.4.1-.4.3ZM8.2,22.8c-.3,0-.4.1-.5.4,0,.2.1.4.3.4.3,0,.4-.1.5-.4,0-.2-.1-.4-.3-.4ZM7.7,26.9c0,.3.2.4.5.4.2,0,.3-.1.3-.3,0-.3-.1-.4-.4-.5-.3,0-.4.2-.4.4ZM7.7,30.7c0,.2.1.3.3.4.3,0,.5-.1.5-.4,0-.2-.1-.3-.3-.4-.3,0-.5.2-.5.4ZM8.2,34.2c-.3,0-.5.1-.4.4,0,.2.2.3.4.3s.3-.1.4-.3c-.1-.2-.2-.4-.4-.4ZM7.7,38.2c0,.3.2.4.4.4s.3-.1.3-.4-.2-.4-.5-.4c-.1.1-.2.2-.2.4ZM9.9,55.3c.3.1.4-.1.4-.2,0-.2-.1-.3-.2-.4-.2-.1-.3.1-.4.3,0,.1.1.3.2.3ZM10,51.6c.2,0,.3-.1.3-.4-.1-.2-.2-.3-.4-.3-.1,0-.2.2-.2.3,0,.2.1.4.3.4ZM10.3,47.6c0-.3-.1-.5-.4-.5-.2,0-.3.1-.3.3,0,.3.1.5.4.5.2,0,.3-.2.3-.3ZM10.3,62.7c0-.2-.1-.3-.2-.4-.2-.1-.3.1-.4.3,0,.2,0,.4.2.4.2.1.4-.1.4-.3ZM10.4,58.8c-.1-.2-.2-.3-.4-.3-.3,0-.4.2-.4.5,0,.2.2.3.4.3s.4-.2.4-.5ZM11.8,49.8c.2,0,.3-.1.4-.3,0-.3-.1-.5-.4-.5-.2,0-.3.1-.4.3-.1.3.1.5.4.5ZM11.7,15.7c0,.1.1.2.2.3.2.1.3-.1.4-.3,0-.2-.2-.3-.4-.3s-.2.2-.2.3ZM11.8,12.2c.2.1.3,0,.4-.2,0-.1-.1-.2-.2-.3-.2-.1-.3,0-.3.2-.1.1,0,.2.1.3ZM12.2,8.2c0-.2,0-.3-.2-.4s-.3.1-.4.2c0,.2,0,.4.2.4.2.1.3-.1.4-.2ZM11.5,19.4c0,.2.1.3.3.3s.3-.1.4-.3c0-.2-.1-.3-.3-.3-.3,0-.4.1-.4.3ZM11.5,23.3c0,.2.2.3.3.3.3,0,.4-.1.4-.3,0-.3-.1-.4-.3-.4-.3,0-.4.1-.4.4ZM11.5,27c0,.3.2.4.5.4.2-.1.3-.2.3-.4,0-.3-.2-.4-.5-.4-.2,0-.3.2-.3.4ZM11.8,31.1c.2.1.3-.1.4-.3,0-.2-.1-.3-.2-.4-.2-.1-.3.1-.4.2-.1.2,0,.4.2.5ZM11.8,41.5c-.2,0-.3.2-.2.4,0,.2.2.3.4.3s.3-.2.3-.4c-.2-.2-.3-.3-.5-.3ZM12,45.2c-.3,0-.5.1-.5.2-.1.3.1.5.4.5.2,0,.4-.1.4-.3,0-.1-.1-.3-.3-.4ZM12.2,38.2c-.1-.2-.2-.3-.4-.3-.2.1-.3.2-.3.4s.1.4.4.4c.2-.1.3-.3.3-.5ZM11.5,53.2c0,.2.1.3.3.3.3,0,.4-.2.4-.5,0-.2-.1-.3-.3-.3-.3,0-.4.2-.4.5ZM11.6,57c0,.2.1.3.3.3s.3-.1.3-.3-.1-.3-.3-.3-.3.1-.3.3ZM13.5,17.6c.1.2.2.3.4.2.3-.1.4-.3.3-.5,0-.2-.2-.3-.4-.2-.3.1-.4.2-.3.5ZM13.5,13.9c0,.1.2.2.3.1.2,0,.3-.2.3-.3-.1-.3-.2-.3-.4-.3-.2.2-.3.3-.2.5ZM13.8,44.1c.2,0,.3-.1.3-.1.1-.4,0-.6-.2-.7-.2-.1-.4,0-.4.2-.2.4,0,.6.3.6ZM13.4,40.2c0,.2.2.3.4.3.3-.1.4-.2.3-.5,0-.2-.2-.3-.4-.3-.2.1-.3.3-.3.5ZM13.7,47.9c.2.1.3,0,.4-.2.1-.2,0-.4-.1-.5-.2-.1-.4-.1-.5.1-.2.2-.1.5.2.6ZM14.2,36.3c-.1-.3-.3-.4-.5-.4s-.3.2-.3.4c0,.3.2.4.5.5.2,0,.3-.2.3-.5ZM13.3,51.4c0,.1.3.2.3.3.3,0,.4-.1.4-.3s-.1-.3-.3-.3c-.2-.1-.5,0-.4.3ZM13.5,55.3c0,.1.2.2.3.2.2,0,.3-.1.4,0-.2-.5-.3-.6-.5-.6s-.3.2-.2.4ZM14.2,32.7c0-.3-.2-.5-.4-.5-.3,0-.4.2-.4.5,0,.2.2.3.4.4.2,0,.3-.2.4-.4ZM13.8,29.2c.2,0,.3-.1.4-.3,0-.2-.1-.4-.2-.4-.3-.1-.5.1-.5.3-.1.3.1.4.3.4ZM13.3,21.4c.1.3.3.3.5.3s.3-.1.3-.4-.2-.4-.5-.4c-.2,0-.3.2-.3.5ZM13.7,25.5c.3,0,.5-.1.5-.4s-.2-.5-.5-.4c-.2,0-.3.2-.4.3-.1.3.1.5.4.5ZM13.3,59c0,.1.3.2.4.3.3.1.4-.1.4-.4-.1-.3-.2-.4-.5-.4-.2.1-.4.2-.3.5ZM15.2,11.8c0,.2.1.3.3.4.3.1.5,0,.5-.3s-.1-.5-.4-.5c-.2,0-.4.1-.4.4ZM15.7,8.4c.2,0,.3-.1.3-.3,0-.3-.1-.4-.3-.5s-.4.1-.4.3c-.1.3.1.5.4.5ZM15.7,15.2c-.3-.1-.4.1-.5.4,0,.2.1.3.3.3s.3-.1.4-.3c.1-.1,0-.3-.2-.4ZM15.2,19.4c0,.3.1.5.4.5s.4-.2.4-.5-.1-.5-.4-.5c-.2,0-.4.2-.4.5ZM15.9,22.8c-.5.1-.7.2-.6.4,0,.3.2.4.5.3.2-.1.3-.2.2-.4-.1-.1-.2-.3-.1-.3ZM16,27c0-.2-.1-.3-.2-.3-.3,0-.4.1-.5.3,0,.2.1.4.2.4.3,0,.5-.2.5-.4ZM15.6,30.4c-.2,0-.3.1-.3.3,0,.3.1.4.3.4.2.1.4-.1.4-.2.1-.3-.1-.5-.4-.5ZM15.3,34.5c0,.3.2.4.5.4.2,0,.4-.2.4-.4,0-.3-.2-.4-.5-.4-.3.1-.4.2-.4.4ZM16,60.9c0-.2-.1-.4-.2-.4-.3-.1-.5.1-.5.4,0,.2.1.3.3.4.2-.1.4-.2.4-.4ZM16,56.9s-.2-.1-.4-.2c-.2-.1-.4.1-.4.3-.1.3.1.5.4.5.3-.1.4-.2.4-.6ZM16,49.3c0-.2-.2-.3-.3-.3-.3,0-.4.2-.4.4s.2.3.3.3c.3.1.4-.1.4-.4ZM15.8,52.8c-.3-.1-.5.1-.5.3,0,.1.1.4.2.4.2.1.4-.1.4-.1.1-.4,0-.6-.1-.6ZM15.5,46c.3.1.5,0,.5-.3,0-.2-.1-.3-.1-.3-.4-.1-.5,0-.6.2-.1.1,0,.3.2.4ZM15.7,42.2c.2,0,.3-.1.4-.3,0-.2-.1-.3-.3-.4-.2-.1-.4.1-.4.3-.2.3,0,.4.3.4ZM17.9,62.7c0-.2-.1-.3-.2-.4-.3,0-.4.1-.4.3s.1.4.2.4c.2.2.4,0,.4-.3ZM19.1,15.5c0,.3.1.5.4.5.2,0,.3-.1.4-.3,0-.3-.1-.5-.4-.5s-.4.1-.4.3ZM19.5,12.4c.2,0,.3-.1.4-.3,0-.3-.1-.4-.4-.5-.2,0-.4.1-.4.3,0,.3.1.5.4.5ZM19.1,26.9c0,.3.1.5.4.5.2,0,.3-.1.4-.3,0-.3-.1-.4-.4-.5-.2,0-.4.1-.4.3ZM19.5,23.6c.3,0,.4-.2.4-.5,0-.2-.2-.3-.4-.4-.3.1-.4.2-.4.5s.2.4.4.4ZM19.5,30.4c-.3,0-.4.1-.4.4,0,.2.1.3.3.3.3,0,.4-.1.4-.4,0-.2-.1-.3-.3-.3ZM19.1,34.5c0,.3.2.4.5.4s.4-.2.3-.5c0-.1-.2-.3-.3-.3-.3,0-.5.2-.5.4ZM19.9,19.3c0-.2-.1-.4-.3-.3-.3,0-.4.2-.4.5,0,.2.1.3.3.3.3-.1.4-.2.4-.5ZM19.9,8.1c0-.3-.2-.4-.4-.4-.3,0-.4.2-.4.5,0,.1.2.3.4.3.2.1.4-.1.4-.4ZM19.9,4.3c0-.3-.2-.4-.5-.4-.1,0-.3.2-.4.3-.1.3.1.4.3.5.4,0,.6-.1.6-.4ZM19.8,41.9c0-.3-.1-.4-.4-.5-.2,0-.3.1-.3.3,0,.3.1.5.4.5.2.1.3-.1.3-.3ZM19.4,45.3c-.2,0-.3.2-.3.4,0,.3.2.4.4.4.3,0,.4-.2.4-.4,0-.3-.2-.5-.5-.4ZM19.1,49.4c0,.3.2.4.4.4.3,0,.4-.2.3-.5,0-.1-.2-.3-.3-.3-.2-.1-.4.1-.4.4ZM19.5,52.9c-.2,0-.3.1-.3.3s.1.3.3.3.3-.1.3-.3-.1-.3-.3-.3ZM19.1,57c0,.3.2.4.5.4.3-.1.4-.3.3-.5,0-.3-.2-.4-.5-.4-.2.1-.4.3-.3.5ZM21.6,62.6c0-.3-.2-.4-.5-.3-.1,0-.3.2-.3.3-.1.3.1.4.4.4.3.1.4-.1.4-.4ZM21.6,47.5c0-.3-.1-.4-.3-.4s-.3.1-.3.3c0,.3.2.4.4.4.1,0,.1-.2.2-.3ZM21.2,50.9c-.2,0-.3.2-.3.4s.2.3.4.3.3-.2.3-.2c0-.4-.1-.5-.4-.5ZM20.9,43.8c0,.2.2.3.4.3s.3-.2.3-.4-.2-.3-.4-.3c-.2,0-.3.2-.3.4ZM21.3,40.5c.2,0,.3-.2.3-.4s-.1-.3-.4-.3c-.2.1-.3.2-.3.4.1.2.2.3.4.3ZM20.9,55.2c0,.3.2.5.5.4.3,0,.4-.3.4-.6-.1-.3-.2-.5-.5-.4s-.4.3-.4.6ZM21.7,58.9c0-.3-.2-.5-.4-.4-.1,0-.3.2-.4.3-.1.3,0,.5.3.5s.5-.1.5-.4ZM21.7,36.5c0-.3-.1-.5-.4-.5s-.5.1-.5.4.2.4.5.4c.3,0,.4-.1.4-.3ZM23.5,34.5c0-.2-.1-.3-.3-.4-.2,0-.4.1-.4.3-.1.3.1.5.4.5.1-.1.2-.2.3-.4ZM23.1,37.9c-.2,0-.3.2-.3.4,0,.3.2.4.5.3.1,0,.2-.3.2-.4-.1-.3-.2-.4-.4-.3ZM23.5,30.9c0-.4-.2-.5-.4-.5s-.4.1-.4.3c0,.3.2.4.4.4.3,0,.4-.2.4-.2ZM23.1,42.2c.2,0,.3-.1.4-.3,0-.2-.1-.4-.2-.4s-.4.1-.4.2c-.3.3-.1.5.2.5ZM23.5,60.8c0-.2-.1-.3-.3-.4-.2,0-.3.1-.4.3s0,.4.2.4c.2.1.4,0,.5-.3ZM23.5,57.1c0-.3-.2-.4-.5-.3-.2,0-.3.2-.2.4,0,.2.2.3,0,.3.5-.1.7-.2.7-.4ZM23.1,49.7c.2,0,.3-.1.4-.3,0-.2,0-.4-.2-.4-.3-.1-.5.1-.5.4-.1.2.1.3.3.3ZM23.5,53.2c0-.2-.1-.3-.3-.3s-.3.1-.3.3.1.3.3.3c.2.1.3-.1.3-.3ZM23.5,45.7c0-.2-.1-.4-.3-.4-.3-.1-.5,0-.5.3,0,.2.1.4.3.4.3.1.5,0,.5-.3ZM25.4,62.6c-.1-.2-.2-.3-.4-.3-.3,0-.4.2-.4.5,0,.2.2.3.4.3.3,0,.5-.2.4-.5ZM25.4,58.9c-.1-.3-.2-.4-.5-.3-.2.1-.3.2-.2.4.1.3.3.4.5.3s.3-.3.2-.4ZM24.7,17.5c0,.2.2.3.4.3.3,0,.4-.2.4-.2-.1-.5-.2-.6-.4-.6-.3.1-.4.3-.4.5ZM25.1,14.1c.3,0,.4-.2.4-.2-.1-.5-.2-.6-.4-.6-.3,0-.4.2-.4.5,0,.2.2.3.4.3ZM24.7,21.3c0,.1.2.3.3.4.3.1.4,0,.5-.3,0-.3-.1-.5-.3-.5-.3,0-.5.2-.5.4ZM25.5,55.2c0-.3-.2-.4-.4-.4s-.3.2-.3.3c0,.3.2.4.4.4s.3-.1.3-.3ZM25.1,51.7c.2,0,.3-.1.4-.3,0-.3-.1-.5-.4-.5-.2,0-.3.2-.3.3-.1.3,0,.5.3.5ZM25.5,47.6c0-.3-.1-.5-.4-.5s-.5.2-.5.4c0,.1.2.3.3.4.3.1.5,0,.6-.3ZM25.5,40.2c0-.3-.1-.4-.4-.5-.3.1-.4.2-.4.5,0,.2.1.3.3.4.3,0,.5-.1.5-.4ZM25.1,43.4c-.2,0-.3.1-.3.3,0,.3.2.4.5.4.2-.1.3-.2.3-.3-.2-.3-.3-.4-.5-.4ZM25.1,36.8c.2,0,.3-.2.3-.4s-.1-.3-.3-.3-.4.1-.4.3c0,.3.2.4.4.4ZM25.5,32.7c0-.2-.1-.3-.3-.4-.3,0-.4.1-.4.4,0,.2.1.3.3.4.2,0,.4-.2.4-.4ZM25.2,28.5c-.3,0-.4.2-.5.4,0,.2.1.4.3.4.3,0,.4-.2.4-.3.1-.4-.1-.5-.2-.5ZM27.5,60.8c0-.3-.2-.4-.4-.5-.2,0-.5.1-.5.4s.2.4.4.4c.2.1.4,0,.5-.3ZM26.6,38.3c0,.3.2.4.5.4s.4-.2.4-.5c0-.2-.2-.3-.4-.3-.3-.1-.5.1-.5.4ZM27.1,34.9c.2,0,.3-.1.3-.3,0-.3-.2-.4-.4-.4s-.3.2-.3.4c-.1.2.1.3.4.3ZM26.7,57c-.1.3.1.5.4.4.2,0,.3-.2.3-.4s-.1-.3-.3-.4c-.2.1-.3.2-.4.4ZM27,53.5c.1,0,.3-.1.3-.1,0-.1,0-.3-.1-.3-.2-.1-.3,0-.4.2.1,0,.2.1.2.2ZM27.4,49.5c0-.3-.1-.5-.4-.5-.2,0-.3.1-.4.3,0,.3.1.4.4.5.2,0,.4-.1.4-.3ZM27.1,45.2c-.3-.1-.4.1-.5.4,0,.3.1.5.4.5.1,0,.3-.2.4-.3.1-.3,0-.5-.3-.6ZM27.5,41.9c0-.3-.1-.4-.4-.5-.3.1-.4.2-.4.5,0,.2.1.3.3.4.2,0,.4-.1.5-.4ZM27.5,27c0-.3-.1-.5-.4-.5s-.5.1-.5.4.1.4.4.5c.2,0,.4-.1.5-.4ZM27.1,18.9c-.2-.1-.4,0-.4.2-.1.3,0,.5.3.6.2,0,.3,0,.4-.2.1-.3,0-.5-.3-.6ZM27.1,22.8c-.2,0-.3.1-.4.3-.1.3.1.5.4.5.2,0,.3-.1.4-.3,0-.3-.2-.5-.4-.5ZM31.2,60.8c0-.3-.2-.4-.4-.5-.3,0-.5.1-.5.4s.1.5.4.5c.2,0,.4-.1.5-.4ZM30.3,38.2c0,.3.2.4.4.4s.3-.2.3-.4c0-.3-.2-.5-.4-.4-.2.1-.3.2-.3.4ZM30.7,34.9c.2,0,.3-.1.4-.3,0-.3-.1-.5-.4-.5-.1,0-.3.2-.4.3,0,.3.1.5.4.5ZM31.1,19.4c0-.2-.1-.3-.3-.4-.3,0-.4.1-.4.4,0,.2.1.3.3.4s.4-.1.4-.4ZM30.6,22.8c-.2,0-.3.2-.3.4,0,.3.2.4.4.4s.3-.2.3-.4c.1-.3-.1-.4-.4-.4ZM30.7,16c.2,0,.3-.1.4-.3,0-.2-.1-.3-.3-.4-.2,0-.3.1-.4.3-.1.2.1.4.3.4ZM31.1,11.9c0-.3-.1-.4-.3-.5-.3-.1-.4.1-.5.4,0,.2.1.3.3.4.3.1.4-.1.5-.3ZM30.3,27c0,.3.2.4.5.4.2,0,.3-.2.3-.4-.1-.3-.2-.4-.5-.4-.2,0-.3.2-.3.4ZM31.1,49.5c0-.3-.1-.5-.4-.5-.2,0-.3.2-.3.3,0,.3.1.4.4.5.1,0,.2-.1.3-.3ZM30.8,52.7c-.3,0-.4.2-.4.5,0,.2.1.3.3.4.3,0,.5-.1.5-.4,0-.3-.2-.5-.4-.5ZM30.3,57c0,.3.2.4.5.4.2,0,.3-.2.4-.4,0-.3-.2-.4-.5-.4-.2,0-.4.2-.4.4ZM32.2,17.5c0,.2.1.4.3.4.3,0,.4-.2.4-.4s-.1-.4-.3-.4c-.2-.1-.4.1-.4.4ZM32.6,14.1c.2,0,.3-.1.3-.3,0-.3-.1-.4-.3-.4s-.3.1-.4.3c.1.3.2.4.4.4ZM32.2,21.2c0,.3.1.5.4.5s.5-.2.4-.5c0-.2-.2-.3-.3-.4-.3-.1-.5.2-.5.4ZM32.6,24.8c-.2,0-.3.2-.3.3,0,.3.2.4.4.4s.3-.2.3-.3c0-.3-.1-.5-.4-.4ZM32.2,28.8c0,.3.2.5.4.5.3,0,.4-.2.4-.5-.1-.3-.2-.4-.5-.4-.2.1-.3.2-.3.4ZM33,40.1c0-.2-.1-.4-.3-.4-.3,0-.4.2-.4.4s.1.4.3.4.4-.1.4-.4ZM32.7,43.4c-.3,0-.4.2-.4.5,0,.2.2.3.4.3.3,0,.4-.2.4-.5-.1-.2-.3-.3-.4-.3ZM33,51.3c0-.3-.1-.5-.4-.5-.2,0-.3.2-.3.4,0,.3.1.5.4.5.1,0,.3-.2.3-.4ZM32.7,54.6c-.3,0-.5.1-.5.4,0,.2.1.3.3.4.2,0,.4-.1.4-.2.2-.3,0-.5-.2-.6ZM32.5,32.2c-.2,0-.3.2-.3.4,0,.3.1.4.4.4.2,0,.3-.1.3-.4.1-.2-.1-.4-.4-.4ZM32.2,58.9c0,.2.1.4.3.4.3,0,.4-.1.4,0,0-.6-.1-.8-.3-.8-.2-.1-.4.1-.4.4ZM33,62.7c0-.2-.1-.4-.4-.5-.3,0-.5.1-.5.4,0,.2.1.5.4.5.3,0,.5-.1.5-.4ZM33.1,47.5c0-.3-.2-.4-.5-.4-.2,0-.3.2-.4.3,0,.3,0,.5.3.5.4,0,.6-.1.6-.4ZM33.1,36.3c0-.2-.2-.3-.4-.3-.3,0-.5.2-.5.4,0,.3.2.4.5.4.3,0,.4-.2.4-.5ZM33.1,9.9c0-.3-.2-.4-.5-.4s-.4.3-.4.5.1.3.4.3c.3.1.4-.1.5-.4ZM32.7,6.6c.2,0,.3-.2.4-.3,0-.3-.1-.5-.4-.5-.2,0-.3.2-.3.4-.2.2,0,.4.3.4ZM34.1,49.6c0,.1.3.2.4.2.3,0,.4-.2.4-.5,0-.1-.3-.2-.4-.2-.3.1-.5.2-.4.5ZM34.6,53c-.1,0-.2.1-.3.2-.1.2,0,.3.2.4.2.1.3-.1.4-.3,0-.2-.1-.3-.3-.3ZM34.9,60.7c-.1-.2-.2-.3-.4-.3-.3,0-.5.2-.5.5s.3.4.5.4c.4-.2.5-.3.4-.6ZM35,56.9c-.1-.3-.3-.5-.5-.4-.3.1-.3.3-.3.6,0,.2.2.3.4.3.3,0,.4-.2.4-.5ZM35,41.7c-.1,0-.2-.1-.4-.2-.2-.1-.4.1-.4.2-.1.3.1.5.4.5.2,0,.3-.1.4-.5ZM34.5,38.6c.3,0,.4-.2.4-.3,0-.3-.1-.4-.3-.4-.3-.1-.4.2-.4.4s.1.3.3.3ZM36.1,17.5c.1.1.2.3.3.3.3.1.4-.1.4-.4,0-.2-.2-.3-.4-.3s-.3.2-.3.4ZM36.3,14c.2.1.3,0,.4-.2.1-.1,0-.3-.1-.3-.2-.1-.4,0-.4.2-.1.1,0,.3.1.3ZM36.9,25.2c0-.3-.1-.4-.4-.5-.3,0-.5.2-.5.4,0,.1.2.3.3.4.3.1.5,0,.6-.3ZM36.8,28.8c-.1-.2-.2-.3-.4-.3s-.3.2-.3.4c0,.3.2.4.5.3.2-.1.2-.2.2-.4ZM36.8,21.3c0-.2-.2-.3-.4-.3s-.3.1-.3.3c0,.3.1.5.4.4.2,0,.3-.2.3-.4ZM36,32.5c0,.3.1.5.4.5.3.1.5-.1.5-.4s-.1-.5-.4-.5-.4.2-.5.4ZM36.9,43.7c-.1-.3-.3-.4-.5-.4-.3.1-.4.3-.4.5.1.3.3.4.5.4.3-.1.5-.2.4-.5ZM36.8,47.7c0-.3-.1-.5-.3-.5-.2-.1-.4.1-.4.2-.1.3.1.5.4.5.2,0,.3-.2.3-.2ZM36.5,51.1c-.3-.1-.4,0-.5.2s.1.4.3.4.4,0,.4-.2c.1-.3-.1-.4-.2-.4ZM36.8,62.7c0-.3-.2-.4-.5-.4-.2,0-.3.1-.4.3-.1.3.1.4.4.5.3,0,.5-.2.5-.4ZM36,59c0,.2.2.3.4.3.3,0,.5-.1.4-.4,0-.3-.2-.4-.5-.4-.2,0-.3.2-.3.5ZM40.2,47.2c-.2-.1-.3.1-.4.3,0,.2.1.3.3.4.2.1.3-.1.4-.3,0-.2-.1-.4-.3-.4ZM40.2,50.9c-.2,0-.3.1-.3.3s.1.3.2.4c.3,0,.4-.1.4-.3,0-.2-.1-.4-.3-.4ZM40.1,59.2c.2.1.3.1.4-.1.1-.2,0-.3-.1-.4-.2-.1-.3,0-.4.1-.2.1-.1.3.1.4ZM40.5,55c0-.2-.1-.3-.3-.3s-.3.2-.3.4.1.3.3.3c.2-.1.3-.2.3-.4ZM39.9,40.1c0,.2.1.3.3.3s.3-.1.3-.3-.1-.3-.3-.3-.3.1-.3.3ZM40.2,36.7c.2,0,.3-.2.3-.4s-.1-.3-.4-.3c-.2,0-.3.2-.3.4.1.2.2.3.4.3ZM40.5,25.1c-.1-.2-.1-.4-.4-.3-.2.1-.3.2-.2.4,0,.2.2.3.4.3.1-.1.2-.3.2-.4ZM40.2,28.5c-.2-.1-.4.1-.4.3s.1.3.3.4.3-.1.4-.3c0-.2-.1-.3-.3-.4ZM40.1,14c.2,0,.3-.1.3-.1,0-.3-.1-.5-.2-.5-.2,0-.3.1-.4.3.1.1.2.3.3.3ZM40.2,21.5c.1,0,.1-.1.2-.2-.1-.1-.1-.2-.2-.2s-.3.1-.3.1c0,.2.1.3.3.3ZM40.5,17.4c0-.2-.2-.3-.4-.3-.1,0-.2.2-.2.3,0,.2.1.4.3.4s.3-.2.3-.4ZM42.5,60.8c0-.3-.2-.4-.5-.4s-.5.2-.5.5.2.4.5.4c.3-.1.5-.2.5-.5ZM41.6,57c0,.3.2.4.4.4s.4-.1.4-.3c0-.3-.1-.5-.4-.4-.2,0-.4.1-.4.3ZM42.2,53.5c.1,0,.2-.3.2-.3,0-.3-.2-.4-.4-.4-.1.1-.3.2-.3.3,0,.3.2.5.5.4ZM44.5,62.7c0-.3-.1-.4-.4-.5-.3,0-.5.1-.5.3,0,.3.1.4.4.5.2.1.4,0,.5-.3ZM44.4,51.2c0-.3-.2-.4-.5-.4s-.4.2-.4.5.2.4.5.4.4-.2.4-.5ZM44,54.7c-.3,0-.4.2-.4.4s.1.3.3.3c.3.1.4-.2.4-.4s-.1-.3-.3-.3ZM45.7,34.1c-.2,0-.3.1-.3.3s.1.3.3.4c.2.1.4-.1.4-.3,0-.2-.1-.4-.4-.4ZM45.8,37.9c-.2-.1-.4.1-.4.3-.1.3,0,.5.3.5.2,0,.3-.1.3-.3.1-.3,0-.5-.2-.5ZM45.4,41.9c.1.3.3.4.5.3.2-.1.3-.2.3-.4-.1-.3-.3-.4-.6-.3-.1.1-.3.2-.2.4ZM46,19.5c0-.2-.2-.3-.4-.3s-.3.2-.3.4.1.3.4.3c.2-.1.3-.2.3-.4ZM45.6,22.9c-.1,0-.2.3-.2.4,0,.2.2.3.2.3.4,0,.5-.2.5-.4,0-.3-.2-.4-.5-.3ZM45.8,27.3c.2,0,.3-.1.3-.3s-.1-.3-.3-.4-.3.1-.4.3c-.1.2.1.4.4.4ZM46.1,4.3c0-.3-.2-.4-.5-.4-.2,0-.3.2-.4.3,0,.3.1.5.4.5.3,0,.5-.1.5-.4ZM46,7.9c-.1-.2-.2-.3-.4-.2-.2.1-.3.2-.2.4,0,.3.3.4.5.3.2-.1.2-.3.1-.5ZM45.3,11.8c0,.2.1.5.3.5.3,0,.4-.1.5-.4,0-.2-.1-.5-.3-.5-.3,0-.5.1-.5.4ZM45.3,15.5c0,.3.2.4.4.5.3,0,.4-.2.4-.5-.1-.3-.2-.4-.5-.4-.2.1-.3.2-.3.4ZM45.6,31.1c.2.1.3-.1.4-.2.1-.3,0-.5-.3-.6-.2-.1-.3,0-.4.2,0,.3.1.5.3.6ZM45.4,53.1c0,.3.1.5.4.4.2,0,.3-.2.3-.4s-.2-.3-.3-.3c-.3,0-.4.1-.4.3ZM45.7,49.7c.2,0,.3-.1.4-.3,0-.2,0-.4-.2-.4-.3-.1-.5.1-.5.4,0,.2.1.3.3.3ZM45.4,57c0,.2.1.3.3.4.2.1.4-.1.4-.2.1-.3-.1-.5-.4-.5-.2,0-.3.1-.3.3ZM46.1,60.8c0-.2-.2-.3-.4-.3s-.3.1-.3.3c0,.3.2.4.4.4.2-.1.3-.2.3-.4ZM46.2,45.6c0-.2-.2-.3-.4-.3-.3,0-.5.1-.5.4s.2.5.4.5c.4-.1.5-.3.5-.6ZM47.6,5.8c-.2,0-.3.1-.3.4.1.1.2.2.3.3.2.1.3-.1.4-.2,0-.3-.1-.5-.4-.5ZM47.6,9.5c-.2,0-.3.2-.4.3,0,.3.1.5.4.5.2,0,.3-.2.4-.3.1-.3-.1-.5-.4-.5ZM47.9,51.2c0-.2-.1-.3-.3-.3-.3,0-.4.2-.4.4s.1.3.3.3c.3,0,.4-.2.4-.4ZM47.7,54.9c-.1,0-.3,0-.3.1-.1.2,0,.3.2.3.1,0,.2-.1.2-.2,0,0,0-.2-.1-.2ZM48,36.5c0-.2-.1-.3-.3-.4-.2,0-.4,0-.4.2-.1.2.1.3.3.4.2.1.3,0,.4-.2ZM47.7,43.5c-.3,0-.4.2-.4.3,0,.2.1.3.3.3s.3-.2.3-.3c0-.2-.1-.3-.2-.3ZM47.3,40c0,.2.1.4.3.4s.3-.1.4-.3c0-.2-.1-.4-.3-.4-.3,0-.4.1-.4.3ZM47.2,47.4c0,.2.1.4.3.4.2.1.3-.1.4-.2.1-.3-.1-.5-.4-.4-.1,0-.2.1-.3.2ZM47.9,62.6c0-.2-.1-.3-.4-.3-.2.1-.3.2-.3.4s.1.3.4.3c.2,0,.3-.2.3-.4ZM48.1,58.9c0-.3-.2-.4-.5-.4-.2,0-.3.2-.3.3,0,.3.1.5.4.5.2,0,.3-.1.4-.4ZM48.1,32.6c0-.3-.1-.4-.4-.5-.3,0-.4.2-.4.5s.2.4.5.4c.1,0,.3-.2.3-.4ZM47.6,29.2c.2,0,.3-.2.3-.3,0-.2-.1-.3-.2-.3-.3,0-.4.2-.4.3,0,.1.1.3.3.3ZM48.1,25.1c0-.3-.2-.4-.4-.4-.3,0-.4.2-.4.5,0,.2.1.3.4.4.2-.1.4-.3.4-.5ZM47.9,17.5c0-.2,0-.4-.2-.4s-.4.1-.4.3,0,.3.2.4c.3,0,.4-.1.4-.3ZM47.5,21c-.1,0-.1.2-.2.3,0,.2.2.3.4.2.1,0,.2-.2.1-.3,0-.1-.1-.3-.3-.2ZM48.1,13.6c-.1-.3-.2-.4-.5-.4-.2,0-.3.2-.3.4,0,.3.1.5.4.5.2,0,.4-.2.4-.5ZM49.8,60.7c0-.2-.1-.3-.3-.3s-.3.1-.3.3c0,.3.2.4.4.4.2,0,.2-.2.2-.4ZM50,56.9c-.1-.3-.2-.4-.5-.4-.2,0-.3.1-.3.3,0,.3.1.5.4.5.2,0,.4-.1.4-.4ZM50.9,28.9c.1.3.3.4.5.3.1,0,.3-.2.3-.4,0-.3-.2-.4-.5-.4-.2.1-.4.3-.3.5ZM50.9,21.3c0,.3.2.4.5.4s.4-.2.3-.5c0-.2-.2-.3-.4-.3s-.4.1-.4.4ZM51.5,17.9c.3-.1.4-.3.3-.5-.1-.1-.3-.3-.4-.3-.3,0-.4.2-.4.5.1.2.3.3.5.3ZM51.5,24.8c-.3-.1-.5.1-.5.4,0,.2.1.3.3.4.2,0,.3-.1.4-.4,0-.2-.1-.4-.2-.4ZM50.9,32.5c0,.3.2.4.4.5.3,0,.4-.2.4-.5-.1-.3-.3-.4-.5-.4-.2.1-.3.2-.3.4ZM50.9,36.4c0,.3.3.4.5.4.3,0,.5-.1.5-.4s-.2-.5-.4-.5c-.4,0-.6.1-.6.5ZM51.8,43.7c-.1-.2-.2-.3-.4-.3-.3,0-.4.2-.4.5,0,.2.2.3.4.3.2-.1.4-.2.4-.5ZM51.4,47.1c-.2,0-.4.1-.4.3,0,.3.1.5.4.4.1,0,.2-.2.3-.3,0-.2-.1-.4-.3-.4ZM51.8,40.2c0-.2-.2-.3-.4-.3s-.3.1-.4.3.1.3.3.4c.3,0,.5-.1.5-.4ZM51.7,62.7c-.1-.1-.1-.3-.3-.3-.3-.1-.4.1-.5.3,0,.2.1.3.3.3.3,0,.4,0,.5-.3ZM51.7,59c0-.2-.1-.4-.3-.4-.3,0-.4.2-.4.4s.2.3.4.3.3-.2.3-.3ZM51.8,55.2c0-.2-.1-.5-.3-.5-.3,0-.5.1-.5.4s.2.4.5.4c.1,0,.3-.1.3-.3ZM53.6,19.5c0-.3-.1-.5-.3-.5-.3-.1-.4.1-.5.4s.1.5.3.5c.3.1.4-.2.5-.4ZM53.3,22.8c-.2,0-.4.1-.4.3-.1.2,0,.4.2.5.3.1.5,0,.5-.3,0-.2-.1-.4-.3-.5ZM52.8,27c0,.3.2.4.5.4.2,0,.3-.1.4-.3,0-.3-.1-.5-.4-.5s-.5.1-.5.4ZM52.8,34.5c0,.2.2.3.3.3.3,0,.4-.1.4-.3s-.1-.4-.3-.4-.4.1-.4.4ZM53.1,31.1c.2.1.4-.1.4-.2.1-.3-.1-.5-.4-.5-.2,0-.3.1-.3.3s.1.3.3.4ZM53.5,60.9c0-.2-.1-.3-.3-.4-.2,0-.3,0-.4.2-.1.2,0,.4.2.4.3.1.5.1.5-.2ZM53.6,57c0-.3-.1-.5-.4-.5s-.4.2-.4.5c0,.1.2.3.3.4.4.1.5-.2.5-.4ZM53.2,53.5c.2,0,.3-.1.3-.2,0-.4-.1-.6-.4-.6-.2,0-.3.1-.4.3.1.3.2.5.5.5ZM53.7,49.4c0-.3-.1-.4-.4-.5-.3,0-.4.2-.4.5,0,.2.1.3.3.4.2,0,.4-.1.5-.4ZM52.8,45.5c0,.3.1.4.3.5s.4-.1.4-.3c.1-.3,0-.5-.4-.5-.1.1-.3.2-.3.3ZM53.3,42.2c.2,0,.3-.2.3-.4s-.2-.3-.4-.3-.4.1-.4.3c0,.3.2.5.5.4ZM53.4,37.9c-.1,0-.4,0-.5.1-.2.2-.1.5.2.6.2.1.5,0,.6-.2.1-.3-.1-.5-.3-.5ZM53.7,15.6c0-.3-.2-.4-.4-.5-.3,0-.5.2-.4.5,0,.3.3.4.5.4s.3-.2.3-.4ZM55.5,28.7c-.1-.2-.2-.3-.4-.2-.3.1-.4.3-.3.6.1.2.2.3.4.2.3-.2.4-.4.3-.6ZM55.1,32.2c-.3,0-.4.2-.4.5,0,.2.2.3.4.3.3,0,.4-.2.4-.5,0-.2-.2-.4-.4-.3ZM55.1,21.7c.3.1.4-.1.5-.4,0-.3-.1-.5-.3-.5-.3,0-.4.1-.5.4s0,.4.3.5ZM55.1,17.9c.3,0,.5-.1.5-.4s-.2-.4-.4-.4-.3.1-.4.3c-.1.3,0,.4.3.5ZM55.6,13.7c0-.3-.2-.4-.5-.4-.3.1-.4.3-.3.5.1.1.3.3.4.3.3,0,.4-.2.4-.4ZM55.6,51.3c0-.3-.1-.5-.4-.4-.3,0-.4.3-.3.5.1.2.2.3.3.3.2,0,.4-.2.4-.4ZM55.5,54.9c0-.2-.2-.3-.4-.3-.3,0-.4.3-.3.5,0,.2.2.3.4.3.3,0,.4-.2.3-.5ZM55.1,47.9c.2,0,.3-.1.4-.3,0-.2-.1-.3-.3-.3-.1,0-.2.1-.3.2-.1.2,0,.4.2.4ZM54.7,43.7c0,.2.1.4.3.4.3,0,.4-.1.5-.4,0-.2-.1-.4-.3-.4-.3,0-.4.2-.5.4ZM55.2,40.5c.2,0,.3-.2.4-.3,0-.3-.1-.5-.4-.5-.2,0-.3.2-.4.4,0,.3.1.4.4.4ZM54.7,58.9c0,.3.1.4.4.4s.4-.2.4-.4c-.1-.3-.2-.4-.5-.3-.1-.1-.3.1-.3.3ZM55.6,62.7c0-.3-.2-.4-.5-.4-.1,0-.3.2-.3.4,0,.3.1.5.4.5.2,0,.3-.3.4-.5ZM55.6,36.5c0-.3-.1-.5-.4-.5s-.5.2-.5.4c0,.3.2.4.5.4.2,0,.4-.1.4-.3ZM55.6,25.1c-.1-.3-.2-.4-.5-.4-.2,0-.3.1-.3.4s.2.5.4.5c.2-.1.4-.3.4-.5ZM57.5,60.8c0-.3-.2-.4-.4-.4-.1,0-.3.1-.4.3-.1.3.1.4.3.5.3,0,.5-.1.5-.4ZM57.5,56.9c-.1-.3-.2-.4-.5-.4s-.4.2-.4.5c.1.3.3.4.5.4.3,0,.5-.2.4-.5ZM56.7,38.3c0,.2.2.3.3.4.3,0,.5,0,.5-.3s-.2-.5-.4-.5c-.3-.1-.4.1-.4.4ZM57,34.9c.3,0,.5-.1.5-.4,0-.1-.2-.3-.2-.4-.4,0-.5.1-.5.4-.1.2,0,.4.2.4ZM57.5,49.5c0-.3-.2-.4-.4-.4s-.3.2-.3.4c0,.3.2.4.4.4.1-.1.3-.2.3-.4ZM57.1,52.9c-.2,0-.3.1-.4.3,0,.2.1.4.3.4s.3-.1.4-.3c.1-.2-.1-.4-.3-.4ZM56.9,46c.2.1.4.1.6-.2.1-.3,0-.5-.3-.6-.2-.1-.3,0-.4.1-.2.3-.2.6.1.7ZM57.1,42.3c.3-.1.4-.2.4-.5s-.3-.4-.5-.3c-.1.1-.3.2-.3.4-.1.2.1.4.4.4ZM57.5,30.7c0-.2-.1-.3-.3-.4-.3,0-.4.1-.5.4,0,.2.1.3.3.4.3.1.5-.1.5-.4ZM57.5,27c-.1-.3-.3-.4-.5-.4s-.4.1-.4.3c0,.3.2.4.4.5.4,0,.5-.2.5-.4ZM59.4,25c-.1-.3-.2-.4-.5-.3-.2,0-.3.2-.3.4,0,.3.2.5.4.5.2-.1.4-.3.4-.6ZM59.1,32.3c-.3,0-.5.1-.5.4,0,.2.1.3.3.4.3,0,.4-.1.5-.3,0-.4-.2-.5-.3-.5ZM58.8,29.3c.2,0,.4-.1.4-.2.1-.3,0-.5-.3-.6-.2,0-.4.1-.4.3-.1.2.1.4.3.5ZM58.5,43.8c0,.1.1.3.3.4.3.1.4,0,.5-.3,0-.2-.1-.5-.3-.5-.3-.1-.5.1-.5.4ZM59,40.5c.2,0,.3-.1.3-.3,0-.3-.2-.4-.4-.4s-.3.2-.3.3c-.1.3.1.4.4.4ZM59,47.2c-.3,0-.4.2-.4.4s.1.3.3.3c.3,0,.4-.1.4-.4,0-.2-.1-.3-.3-.3ZM59.4,62.7c-.1-.3-.2-.4-.5-.4s-.4.2-.4.5c0,.2.2.3.4.3s.4-.2.5-.4ZM58.6,58.8c0,.3.1.4.4.5.2,0,.3-.1.4-.3,0-.3-.1-.5-.4-.5s-.4.1-.4.3ZM58.8,55.4c.2,0,.3-.1.4-.2.1-.2-.1-.3-.3-.4-.2,0-.3.1-.4.3,0,.1.2.3.3.3ZM59.4,51.3c-.1-.3-.2-.4-.5-.4s-.4.2-.4.5c0,.2.2.3.4.3.3,0,.4-.1.5-.4ZM59,36c-.3,0-.5.1-.5.4-.1.3.1.6.5.6.3,0,.4-.2.4-.3.1-.5-.1-.7-.4-.7ZM60.4,15.5c0,.3.1.4.4.5.2,0,.3-.1.3-.3,0-.3-.1-.5-.4-.5-.1,0-.3.2-.3.3ZM60.5,12c.1.2.2.3.4.3.2-.1.3-.2.3-.4s-.2-.3-.4-.2c-.2-.1-.4,0-.3.3ZM60.4,19.3c-.1.3.1.5.4.5s.4-.1.5-.4c0-.3-.1-.5-.4-.5s-.5.2-.5.4ZM60.4,23.2c0,.2.2.3.4.3.3,0,.4-.2.4-.5,0-.2-.1-.3-.3-.3-.4.1-.5.3-.5.5ZM60.9,26.6c-.3-.1-.4.1-.5.4,0,.2.1.4.3.4.3,0,.4-.1.5-.4,0-.2-.1-.4-.3-.4ZM60.5,45.7c0,.2.1.4.3.3.3,0,.4-.2.4-.5,0-.2-.2-.3-.4-.4-.2.2-.4.4-.3.6ZM60.7,42.2c.3.1.4-.2.4-.4s-.2-.3-.3-.3c-.3,0-.4.2-.4.4,0,.1.2.3.3.3ZM61.2,38.3c0-.2-.1-.4-.3-.4-.3-.1-.4.1-.5.4,0,.2.1.4.3.4.3,0,.5-.2.5-.4ZM61.1,34.5c0-.2-.1-.4-.3-.4-.3,0-.4.2-.4.4s.1.3.3.3c.3,0,.4-.1.4-.3ZM60.4,49.6c.1.2.2.2.4.2.3-.1.3-.3.3-.6-.1-.1-.2-.2-.4-.2-.3.1-.4.3-.3.6ZM61.1,53.1c0-.2-.2-.3-.4-.3s-.3.2-.3.4c0,.3.1.5.5.4.2-.1.2-.3.2-.5ZM61.1,60.6c-.1-.2-.2-.3-.4-.3-.3.1-.4.3-.3.5.1.2.2.3.4.3.3,0,.4-.2.3-.5ZM61,56.7c-.3-.1-.5.1-.5.3s.1.4.3.4c.3,0,.4-.1.5-.2,0-.3-.1-.5-.3-.5ZM61.3,30.9c0-.3-.1-.4-.4-.5-.3,0-.4.2-.5.4,0,.2.1.3.3.4.3,0,.5-.1.6-.3ZM62.5,43.7c0,.2.1.3.2.4.2,0,.3-.1.4-.3,0-.2-.1-.4-.2-.4-.3-.1-.4.1-.4.3ZM62.7,40.5c.1,0,.2-.1.3-.1.1-.2,0-.3-.1-.4-.1,0-.2.1-.3.1-.1.2-.1.3.1.4ZM62.3,47.6c0,.2.1.3.3.4.3,0,.4-.1.5-.4,0-.3-.1-.5-.4-.5s-.4.2-.4.5ZM62.8,51c-.2-.1-.3.1-.3.3,0,.1.1.4.2.4.2.1.3-.1.4-.3-.1-.2-.1-.4-.3-.4ZM62.8,62.3c-.2,0-.3.1-.4.3-.1.3,0,.5.3.5.2,0,.4-.1.4-.3,0-.3-.1-.5-.3-.5ZM62.6,59.3c.3,0,.4-.1.4-.4,0-.2-.1-.3-.3-.4-.3,0-.4.1-.4.4,0,.2.1.3.3.4ZM63.1,55.2c0-.3-.1-.5-.4-.5s-.4.2-.4.4.1.5.4.5c.3,0,.4-.2.4-.4ZM62.9,35.9c-.3-.1-.5.1-.6.3-.1.3,0,.6.4.7.3,0,.4-.2.5-.4,0-.3-.1-.5-.3-.6ZM62.8,33c.2,0,.4-.1.4-.3,0-.3-.1-.5-.4-.4-.1,0-.2.2-.3.4-.1.1.1.2.3.3ZM62.8,24.7c-.3,0-.5.2-.5.4,0,.1.2.3.3.4.2.1.5,0,.6-.3,0-.3-.2-.5-.4-.5ZM63.1,17.5c0-.3-.2-.4-.5-.4-.1,0-.2.3-.2.4,0,.2,0,.5.4.5.2-.1.4-.3.3-.5ZM62.8,21c-.2,0-.3.1-.3.3s.1.5.4.4c.1,0,.2-.2.3-.3-.1-.3-.2-.4-.4-.4ZM62.8,14.1c.2,0,.4-.1.3-.3,0-.1-.1-.3-.3-.4-.3-.1-.4.1-.4.4.1.1.2.2.4.3ZM63.2,9.9c0-.3-.2-.4-.5-.4-.3.1-.4.2-.3.5,0,.1.2.3.4.3.2.1.4-.1.4-.4ZM62.7,2.9c.3,0,.4-.2.4-.5s-.2-.4-.5-.4c-.1,0-.3.2-.3.4-.1.3.2.5.4.5ZM62.2,6.2c0,.3.2.4.5.4s.4-.2.5-.4c0-.2-.2-.4-.5-.4-.2,0-.4.2-.5.4ZM62.2,28.8c0,.3.2.4.5.4.2,0,.4-.1.4-.3,0-.3-.1-.5-.4-.5-.2,0-.5.1-.5.4ZM60.4.4c0,.3.1.4.4.5.2,0,.4-.1.4-.3,0-.3-.1-.5-.4-.5-.2,0-.4.1-.4.3ZM60.4,4.3c0,.3.1.5.4.5.2,0,.5-.1.5-.4s-.2-.5-.4-.5c-.3,0-.5.1-.5.4ZM60.4,8c0,.3.1.5.4.5.2,0,.3-.1.3-.3,0-.3-.1-.5-.4-.5-.2-.1-.3.1-.3.3ZM59.4,21.4c0-.3-.2-.5-.4-.5s-.5,0-.5.3.1.5.4.5c.3.1.5,0,.5-.3ZM59.3,13.8c0-.3-.1-.5-.4-.5-.2,0-.3.1-.4.3,0,.3.1.5.4.5.2,0,.4-.1.4-.3ZM59.1,17.2c-.2-.1-.4,0-.4.2-.1.3.1.4.3.5.2,0,.3-.1.3-.1.1-.4-.1-.5-.2-.6ZM59.4,10c0-.3-.2-.4-.4-.5-.3.1-.4.2-.4.5,0,.2.2.3.3.3.2.1.4,0,.5-.3ZM58.5,2.4c0,.2.1.3.3.4.3,0,.4-.1.5-.4,0-.3-.1-.4-.3-.4-.3,0-.5.1-.5.4ZM58.5,6.2c0,.2.1.3.3.4.3,0,.5-.1.6-.4,0-.3-.2-.4-.4-.5-.3.1-.5.2-.5.5ZM56.7.6c0,.2.1.3.3.3.3,0,.4-.1.4-.4,0-.2-.2-.3-.4-.3-.1,0-.3.1-.3.4ZM56.7,4.4c.1.3.3.4.5.3.2,0,.3-.2.3-.4-.1-.2-.2-.4-.5-.4s-.4.2-.3.5ZM56.6,8.1c0,.3.3.4.5.4.3-.1.4-.2.3-.5-.1-.1-.3-.3-.4-.3-.2-.1-.4.1-.4.4ZM57.5,15.5c0-.2-.2-.3-.4-.3-.3,0-.5.1-.5.4s.2.4.5.4c.3,0,.4-.2.4-.5ZM57.4,19.3c-.1-.2-.2-.2-.4-.2s-.3.2-.3.4c.1.2.2.3.4.3.2-.1.4-.2.3-.5ZM56.7,12c.1.2.2.2.4.2.2-.1.4-.2.3-.4-.1-.1-.2-.3-.4-.3-.2.1-.4.2-.3.5ZM56.6,23.3c0,.3.3.4.6.4.3-.1.5-.3.4-.7-.1-.2-.3-.4-.5-.4-.4.1-.6.4-.5.7ZM54.7,2.4c0,.3.2.4.4.4.3,0,.4-.2.3-.5,0-.2-.1-.4-.4-.3-.1.1-.3.3-.3.4ZM55.1,5.7c-.2,0-.3.2-.4.3,0,.3,0,.5.3.5s.5-.2.5-.4c.1-.2-.1-.4-.4-.4ZM54.7,10c0,.3.3.4.5.4.3,0,.4-.2.4-.5-.1-.3-.3-.4-.5-.4s-.4.2-.4.5ZM52.8.5c0,.3.1.5.4.5.2,0,.5-.1.5-.4s-.1-.5-.4-.5c-.2,0-.4.1-.5.4ZM52.8,4.3c0,.3.2.4.4.4s.3-.2.3-.3c0-.3-.2-.4-.4-.4-.1,0-.3.1-.3.3ZM52.8,8c0,.3.2.5.4.5.3,0,.4-.2.4-.5,0-.2-.2-.3-.3-.4-.2,0-.4.1-.5.4ZM52.7,11.8c0,.3.2.4.5.5.3,0,.6-.1.6-.5,0-.3-.3-.4-.5-.4-.4,0-.6.1-.6.4ZM51.9,51.3c-.1-.3-.3-.4-.5-.4-.3,0-.4.2-.4.5s.2.4.5.4c.3-.1.4-.3.4-.5ZM51.4,5.8c-.2,0-.3.1-.4.3,0,.3.1.5.4.5s.5-.2.5-.4c0-.3-.3-.4-.5-.4ZM51,2.4c0,.2.1.3.3.4.2.1.4-.1.4-.2.1-.3,0-.5-.4-.5-.2,0-.3.1-.3.3ZM50.9,9.9c0,.3.2.4.5.5.3,0,.6-.1.6-.5,0-.3-.3-.4-.6-.4s-.5.2-.5.4ZM50.8,13.8c0,.4.3.5.6.5s.4-.2.5-.5c0-.4-.2-.6-.5-.6-.4,0-.6.2-.6.6ZM50.1,53.1c0-.3-.3-.4-.5-.4-.3,0-.4.2-.4.5s.1.5.4.5c.3,0,.5-.2.5-.6ZM49.1,30.7c0,.3.2.5.4.5.3,0,.4-.2.4-.5-.1-.3-.2-.4-.5-.4-.1.1-.3.2-.3.4ZM49.4,27.3c.2.1.3-.1.4-.2.1-.3,0-.5-.3-.5-.2,0-.3.1-.3.3,0,.2.1.4.2.4ZM49.2,49.5c0,.2.2.3.4.2.2,0,.3-.2.3-.4-.1-.2-.2-.3-.4-.2-.2.1-.3.2-.3.4ZM49.5,46c.2,0,.3-.1.4-.3,0-.2-.1-.4-.3-.4s-.4.1-.4.3.1.4.3.4ZM50,41.9c0-.3-.2-.4-.5-.4-.2,0-.3.1-.3.4s.2.4.5.4c.1-.1.3-.2.3-.4ZM50,34.4c-.1-.3-.3-.4-.5-.3-.1.1-.3.2-.3.4,0,.3.2.4.4.4.2,0,.4-.2.4-.5ZM49.6,37.9c-.2-.1-.4.1-.4.3-.1.3.1.5.4.5.2,0,.3-.1.3-.1-.1-.5-.2-.7-.3-.7ZM50,23.1c0-.3-.2-.4-.5-.4s-.4.2-.4.5.1.5.4.5c.3-.1.6-.3.5-.6ZM50,11.7c0-.3-.2-.4-.5-.4-.3.1-.4.3-.4.5s.1.3.4.3c.3.1.5-.1.5-.4ZM49.5,15.2c-.3.1-.4.2-.4.5,0,.2.2.3.4.3.3,0,.5-.1.5-.4s-.2-.4-.5-.4ZM49.4.9c.2.1.3-.1.4-.2.1-.3,0-.5-.3-.5-.2,0-.3.1-.3,0,0,.5.1.6.2.7ZM49.2,4.3c0,.2.1.3.3.3s.3-.1.3-.3-.1-.3-.4-.3c-.1,0-.2.1-.2.3ZM49.1,8.1c0,.2.2.3.4.3.3,0,.5-.1.5-.4s-.2-.4-.5-.4c-.3.1-.4.3-.4.5ZM49,19.4c0,.3.2.4.5.4s.5-.1.5-.4-.2-.5-.6-.5c-.2.1-.4.3-.4.5ZM47.6,2.8c.3,0,.5-.1.5-.4.1-.3-.1-.4-.4-.4-.1,0-.3.2-.4.3-.1.2,0,.4.3.5ZM45.7,1.1c.2.1.5,0,.6-.3s-.1-.6-.4-.7C45.7,0,45.4.1,45.3.4c-.1.4.1.5.4.7ZM44,58.5c-.3,0-.4.2-.4.5s.3.4.5.3c.3,0,.5-.2.4-.4-.1-.3-.3-.4-.5-.4ZM44.4,47.5c-.1-.3-.3-.4-.5-.3-.2,0-.4.1-.3.3,0,.3.2.5.5.5.1-.1.3-.3.3-.5ZM44.3,40.2c0-.2,0-.4-.2-.4-.3,0-.4.1-.5.4,0,.2.1.3.3.3s.3-.1.4-.3ZM43.9,43.4c-.2,0-.3.1-.4.3,0,.3.1.5.4.5.2,0,.3-.1.3-.3.1-.3,0-.5-.3-.5ZM44,36.7c.2-.1.2-.2.2-.4s-.2-.3-.4-.3-.3.2-.3.4c.1.2.3.4.5.3ZM44.3,32.6c-.1-.1-.2-.3-.3-.3-.3-.1-.5.1-.5.4,0,.1.2.3.3.4.3,0,.4-.2.5-.5ZM44.4,28.9c0-.3-.2-.5-.4-.5-.3,0-.4.2-.4.5,0,.2.2.3.4.4.1,0,.3-.1.4-.4ZM44.3,13.7c0-.3-.1-.4-.3-.4s-.4.1-.4.3c0,.3.1.5.4.4.1,0,.2-.2.3-.3ZM44.2,17.4c-.1-.2-.2-.3-.2-.3-.4.1-.5.3-.5.4,0,.3.2.4.5.3.3-.1.3-.3.2-.4ZM43.5,21.4c0,.2.2.3.4.3s.3-.1.4-.3c0-.2-.1-.3-.3-.4-.3,0-.5.2-.5.4ZM43.5,25.1c0,.2.1.3.3.4.2,0,.4-.1.4-.3.1-.3,0-.5-.3-.5-.2.1-.3.2-.4.4ZM43.5,2.4c0,.3.2.4.5.3.2-.1.2-.2.2-.4-.1-.2-.2-.4-.4-.3-.1.1-.3.3-.3.4ZM43.8,5.8c-.2.1-.3.2-.2.4,0,.2.2.3.4.3s.3-.2.3-.4c-.1-.2-.2-.4-.5-.3ZM43.5,10c0,.3.2.5.4.5.3,0,.4-.2.4-.5s-.2-.5-.4-.5-.4.2-.4.5ZM41.7.6c0,.2.2.3.4.3.3,0,.4-.1.5-.4,0-.3-.2-.4-.5-.4-.3.1-.4.3-.4.5ZM41.7,4.3c0,.3.2.4.5.3.2,0,.3-.2.2-.4-.1-.2-.2-.3-.4-.2-.2,0-.3.1-.3.3ZM41.7,8.1c0,.2.1.3.3.4.3,0,.4-.1.5-.3,0-.3-.1-.5-.4-.5-.3-.1-.4.1-.4.4ZM42.4,27c0-.3-.2-.4-.5-.3-.2.1-.3.2-.2.4,0,.2.2.3,0,.3.6-.1.7-.2.7-.4ZM42.2,30.4c-.3,0-.4,0-.5.2s0,.4.2.4c.2.1.5,0,.5-.3,0,0-.1-.2-.2-.3ZM41.8,19.3c-.1.2.1.3.2.3.2,0,.3-.1.3-.3s-.1-.3-.3-.3c-.1.1-.2.2-.2.3ZM42.2,15.9c.1,0,.1-.2.2-.3,0-.2-.2-.3-.4-.3-.1,0-.2.2-.2.3,0,.3.2.4.4.3ZM41.7,23.2c0,.2,0,.4.2.4.3.1.4-.1.5-.4,0-.2-.1-.3-.3-.3-.2,0-.3.1-.4.3ZM42.4,11.8c0-.2-.2-.3-.3-.3-.2,0-.4.1-.4.3,0,.3.2.5.4.4.2-.1.3-.2.3-.4ZM41.9,34.9c.3.1.5,0,.5-.3,0-.2,0-.4-.2-.4-.3-.1-.5,0-.6.3,0,.1.1.3.3.4ZM42.1,38c-.2-.1-.4,0-.4.2-.1.3.1.4.3.5.2,0,.3-.1.4-.3,0-.2-.1-.3-.3-.4ZM41.6,41.8c0,.3.1.5.4.5.3.1.5-.1.6-.3.1-.3-.1-.5-.4-.5-.3-.1-.5,0-.6.3ZM42,45.3c-.2,0-.3.1-.3.2,0,.3.1.4.3.5s.3-.1.4-.2c.1-.3-.1-.5-.4-.5ZM41.9,49.8c.3,0,.5-.1.5-.4s-.1-.5-.4-.5c-.1,0-.3.2-.4.3-.1.3,0,.5.3.6ZM40.5,9.9c0-.2-.1-.3-.3-.3s-.4.1-.4.3c0,.1.1.4.2.4.3,0,.5-.1.5-.4ZM39.9,2.5c0,.2.2.3.4.3s.3-.2.3-.4-.1-.3-.4-.3c-.2,0-.4.2-.3.4ZM39.8,6.2c0,.2.1.3.3.4.2,0,.4-.1.4-.3s-.1-.3-.3-.4c-.2-.1-.4,0-.4.3ZM39.7,32.7c0,.2.2.3.4.3.3,0,.4-.2.4-.5,0-.2-.1-.4-.4-.3-.2,0-.4.2-.4.5ZM39.7,43.8c0,.3.2.4.5.3.2,0,.3-.2.3-.4-.1-.3-.2-.4-.5-.3-.2,0-.3.2-.3.4ZM39.7,62.7c0,.2.1.3.3.4.3,0,.5-.1.5-.4,0-.2-.1-.4-.3-.4-.3-.1-.5.1-.5.4ZM38.6,60.7c0-.2-.2-.3-.4-.3-.1.1-.2.2-.2.3,0,.3.2.4.5.3.1.1.2-.1.1-.3ZM38,49.4c0,.1.1.2.2.3.2.1.4,0,.4-.2s-.1-.3-.3-.4c-.2,0-.3.1-.3.3ZM38.3,46c.2,0,.3-.2.3-.4s-.2-.3-.4-.3-.3.2-.3.4c.1.1.2.3.4.3ZM38.3,53c-.1,0-.2.1-.2.2.1.1.1.2.2.3.1,0,.3,0,.3-.1,0-.2-.1-.4-.3-.4ZM38.3,56.7c-.1,0-.2.1-.2.2.1.1.1.2.2.3.1,0,.3,0,.3-.1,0-.2-.1-.4-.3-.4ZM38.5,34.2c-.2-.1-.3,0-.4.1-.1.2,0,.4.1.5.2.1.3,0,.3.1.2-.5.1-.6,0-.7ZM38.4,37.9c-.2,0-.3.1-.3.3s.1.3.3.4c.2,0,.3-.1.3-.1-.1-.4-.2-.6-.3-.6ZM38.5,30.4c-.2-.1-.3-.1-.4.1-.1.2,0,.4.1.5.2.1.3.1.3.1.2-.4.1-.6,0-.7ZM38,15.6c0,.1.1.2.2.3.2.1.4,0,.4-.2s-.1-.3-.2-.4c-.3-.1-.4.1-.4.3ZM38.3,12.1c.2,0,.3-.1.3-.3-.1-.2-.2-.3-.4-.3-.1,0-.2.2-.2.3,0,.2.1.3.3.3ZM38.4,19.2c-.2-.1-.3,0-.3.2,0,.1.1.2.2.2s.2-.1.3-.1c0-.1-.1-.2-.2-.3ZM38,23.3c0,.2.1.3.4.3.2,0,.3-.2.3-.4s-.1-.3-.4-.3c-.2,0-.3.2-.3.4ZM38.4,26.7c-.2-.1-.3.1-.4.2,0,.2.1.3.2.4.2.1.3-.1.4-.2,0-.2-.1-.4-.2-.4ZM38.6,8.1c0-.2-.1-.4-.3-.4s-.3.1-.4.3c0,.2.1.4.3.4.3.1.4-.1.4-.3ZM38.3.9c.2.1.3-.1.4-.3,0-.2-.1-.3-.2-.4-.2-.1-.3.1-.4.3-.1.2,0,.3.2.4ZM38.1,4.6c.3.1.5,0,.5-.3,0-.1-.1-.3-.2-.4-.2,0-.4.1-.4.3-.1.2-.1.3.1.4ZM38.1,42.2c.2.1.3.1.5-.1.1-.2,0-.4-.1-.5-.2-.1-.3-.1-.5.1-.1.2,0,.4.1.5ZM36.9,55.1c0-.3-.2-.4-.5-.4-.2,0-.4.2-.4.3-.1.3.1.4.4.5.3,0,.5-.1.5-.4ZM36.9,10c0-.3-.1-.5-.4-.5-.3-.1-.5.1-.5.3-.1.3.1.5.4.5.3.1.4,0,.5-.3ZM36.8,6.2c0-.3-.2-.4-.5-.4-.2,0-.3.1-.4.3,0,.3.1.5.4.5s.5-.2.5-.4ZM36,2.4c0,.3.2.4.5.4s.4-.2.4-.5c0-.2-.1-.3-.4-.3-.3,0-.5.1-.5.4ZM36,36.4c0,.3.2.4.5.4s.5-.1.5-.4-.2-.4-.5-.4-.5.1-.5.4ZM35.9,40.1c0,.2.1.3.3.4.3.1.5,0,.5-.3s-.1-.5-.4-.5c-.2,0-.3.2-.4.4ZM35,23.1c0-.3-.2-.4-.5-.4-.3.1-.5.3-.4.7.1.3.3.4.6.3.2-.2.4-.4.3-.6ZM34.2,15.6c0,.3.2.4.5.3.2,0,.2-.2.2-.4-.1-.2-.2-.3-.4-.3-.2.1-.3.2-.3.4ZM34.6,12.2c.2,0,.3-.1.3-.4-.1-.1-.2-.2-.3-.3-.2-.1-.3,0-.4.2,0,.3.1.5.4.5ZM34.5,19.1c-.1,0-.3.2-.3.3,0,.3.2.4.4.3s.2-.2.2-.4c.1-.1-.1-.2-.3-.2ZM34.5.9c.2.1.4-.1.5-.3,0-.2-.2-.3-.3-.3-.2,0-.3.1-.4.3-.1.1,0,.3.2.3ZM34.5,4.7c.3.1.5-.1.5-.4,0-.2-.2-.3-.4-.3s-.3.1-.4.3c0,.1.1.3.3.4ZM34.1,8.2c.1.1.3.3.4.3.3,0,.5-.2.5-.5s-.3-.4-.5-.4c-.3.1-.5.3-.4.6ZM34,27c0,.3.2.4.5.4s.5-.2.5-.4c0-.3-.2-.4-.5-.4-.2,0-.5.1-.5.4ZM34.6,30.4c-.2,0-.3.2-.3.3,0,.3.2.4.5.3.2-.1.3-.2.2-.4-.1-.1-.2-.2-.4-.2ZM34,34.6c0,.3.3.4.5.3.3,0,.4-.2.4-.5-.1-.3-.3-.4-.5-.3-.2,0-.4.2-.4.5ZM34,45.6c0,.3.1.5.4.5s.5-.1.5-.4-.1-.5-.4-.5c-.2,0-.4.1-.5.4ZM32.2,2.4c0,.3.2.5.5.5s.5-.2.5-.4c0-.3-.2-.4-.5-.5-.3,0-.5.2-.5.4ZM30.8,7.7c-.3,0-.4.2-.5.4,0,.2.1.3.3.4.3,0,.5-.1.5-.4.1-.2,0-.4-.3-.4ZM31.2,4.2c-.1-.3-.3-.4-.5-.4-.3,0-.4.2-.4.5s.3.4.5.4c.3,0,.4-.2.4-.5ZM30.3.5c0,.2.2.3.4.4.2,0,.5-.1.5-.4S31.1,0,30.8.1c-.3,0-.5.2-.5.4ZM30.3,30.8c0,.2.1.3.3.4.3,0,.5-.1.5-.4s-.1-.4-.4-.5c-.3,0-.4.2-.4.5ZM30.6,42.3c.2,0,.4-.1.4-.2.1-.3,0-.5-.3-.6-.2,0-.4.1-.4.3-.1.2,0,.4.3.5ZM30.3,45.6c0,.3.2.5.5.4.2,0,.3-.2.3-.4,0-.3-.2-.5-.5-.4-.2.1-.3.2-.3.4ZM29.4,62.6c-.1-.3-.3-.4-.5-.4-.3,0-.4.2-.4.5s.3.4.5.4.4-.2.4-.5ZM28.8,51.7c.2,0,.3-.1.4-.2.1-.2-.1-.3-.3-.4-.2,0-.3.1-.4.2,0,.2.1.3.3.4ZM28.8,47.9c.2,0,.3-.1.3-.2,0-.3-.1-.4-.3-.4s-.3.1-.4.3c.1.2.2.3.4.3ZM28.5,55.1c0,.2.1.3.3.3s.5-.1.4-.4c0-.1-.2-.2-.3-.3-.2.1-.4.2-.4.4ZM29.2,43.6c0-.2-.2-.3-.4-.3-.3,0-.4.2-.4.5,0,.2.2.3.4.3.3,0,.4-.2.4-.5ZM28.8,59.3c.3,0,.5-.1.5-.4s-.2-.4-.4-.4c-.1,0-.3.2-.4.3-.1.2,0,.4.3.5ZM29.3,40.2c-.1-.3-.2-.4-.5-.4s-.4.2-.4.5c0,.2.2.3.4.3.3,0,.5-.1.5-.4ZM29.2,36.5c0-.3-.1-.4-.4-.5-.3,0-.5.2-.5.4,0,.3.2.4.5.4.3,0,.4-.1.4-.3ZM28.4,2.5c0,.3.3.4.5.4.3,0,.5-.2.4-.5,0-.3-.3-.4-.5-.4-.3,0-.4.2-.4.5ZM29.2,13.9c-.1-.4-.2-.6-.4-.5-.3,0-.4.2-.4.5,0,.2.2.3.4.3.3-.1.5-.3.4-.3ZM28.9,17.2c-.2,0-.3.1-.4.2-.1.2.1.3.2.4.2,0,.3-.1.4-.2.2-.2,0-.3-.2-.4ZM29.2,10c0-.2-.1-.3-.3-.4-.3,0-.4.2-.4.4s.1.3.3.4c.3,0,.4-.2.4-.4ZM28.4,21.3c0,.3.2.4.5.4.3-.1.4-.2.4-.5s-.2-.4-.5-.4-.4.2-.4.5ZM28.5,25c0,.3.2.4.4.4.3,0,.4-.2.4-.4,0-.3-.2-.4-.4-.4-.3.1-.4.2-.4.4ZM28.8,29.3c.3,0,.5-.2.5-.4,0-.3-.2-.5-.4-.4-.1,0-.3.2-.3.3-.2.3-.1.5.2.5ZM29.3,6.2c0-.3-.1-.5-.4-.5s-.5.1-.5.4.1.5.4.5.5-.1.5-.4ZM28.3,32.6c.1.3.2.4.5.4s.5-.2.5-.4c0-.3-.2-.4-.5-.4-.2,0-.4.2-.5.4ZM26.7.6c0,.2.1.3.3.4.3,0,.4-.1.4-.2,0-.4-.1-.6-.3-.6-.2-.1-.4.1-.4.4ZM26.6,4.2c0,.3.1.4.4.5.3,0,.5-.1.5-.4-.1-.3-.3-.4-.5-.4s-.4.1-.4.3ZM26.6,8.1c0,.3.2.4.5.4s.4-.2.4-.5c0-.2-.2-.3-.4-.3-.3-.1-.5.1-.5.4ZM27.2,11.7c-.1,0-.3.1-.3.1-.1.2,0,.4.3.3.1,0,.1-.2.2-.2-.1-.1-.2-.2-.2-.2ZM26.6,15.6c0,.3.2.4.5.4.2,0,.3-.1.4-.3,0-.3-.1-.5-.4-.5s-.5.1-.5.4ZM26.5,30.8c0,.3.3.4.5.4.3,0,.5-.2.4-.5,0-.3-.3-.4-.5-.4-.2.1-.4.2-.4.5ZM25.3,24.7c-.3-.2-.5,0-.6.2-.1.3,0,.4.2.6.2.1.4,0,.6-.2.1-.3,0-.5-.2-.6ZM25.1,2.8c.1,0,.4-.1.4-.2.1-.3-.1-.4-.3-.5-.2,0-.4.1-.4.2-.1.3,0,.5.3.5ZM24.7,6.3c.1.2.2.2.4.2.3-.1.4-.3.3-.6-.1-.2-.2-.3-.4-.2-.3.2-.4.4-.3.6ZM24.7,10c0,.3.2.4.5.4.2,0,.3-.2.3-.4,0-.3-.1-.4-.4-.5-.3.1-.5.2-.4.5ZM23.2,15.3c-.3,0-.5.1-.5.4,0,.2.1.3.3.4.3,0,.4-.1.4-.4.2-.2,0-.3-.2-.4ZM22.8,23.1c0,.2,0,.4.2.4.3.1.5-.1.5-.4,0-.2-.1-.3-.2-.3-.4,0-.5.2-.5.3ZM23.1,19.7c.2,0,.3-.1.3-.3,0-.1-.1-.2-.2-.2-.2-.1-.3.1-.4.3,0,.1.1.2.3.2ZM23.3,11.5c-.2-.1-.3-.1-.5,0-.2.2-.1.4.2.6.2.1.3,0,.4-.2.1-.1.1-.3-.1-.4ZM23.2,8.4c.2-.1.2-.2.2-.4-.1-.2-.2-.3-.4-.3-.1.1-.3.2-.3.4,0,.2.3.4.5.3ZM22.8.5c0,.3.1.5.4.4.2,0,.3-.2.3-.4s-.1-.3-.3-.3c-.3,0-.4.1-.4.3ZM22.7,4.3c0,.3.2.4.4.4s.3-.2.3-.4-.2-.3-.3-.3c-.2-.1-.4.1-.4.3ZM22.7,27c0,.3.2.4.5.4.2,0,.4-.2.4-.4,0-.3-.2-.4-.5-.4-.2,0-.4.2-.4.4ZM20.8,2.4c0,.4.4.5.7.5.2,0,.3-.2.3-.4,0-.4-.2-.6-.6-.6-.2.1-.4.2-.4.5ZM21.6,17.5c0-.2,0-.4-.2-.4s-.3.1-.3.1c-.1.4,0,.6.2.6.1.1.2-.1.3-.3ZM21.3,21c-.1,0-.3.1-.3.1-.1.2,0,.4.3.3.1,0,.1-.1.2-.2-.1,0-.1-.2-.2-.2ZM21.6,13.7c0-.2-.1-.3-.3-.3-.2.1-.3.2-.3.4s.1.3.3.3c.2-.1.3-.2.3-.4ZM20.9,9.9c0,.2.1.3.3.3s.3-.1.4-.3c0-.2-.1-.3-.3-.3-.2,0-.4.1-.4.3ZM21.2,6.5c.2,0,.3-.1.4-.3-.1-.1-.1-.3-.2-.3-.1-.1-.4,0-.4.1-.2.3,0,.5.2.5ZM20.9,25.1c0,.3.2.4.5.3.2,0,.2-.2.2-.4s-.2-.3-.4-.3c-.1.1-.3.2-.3.4ZM20.8,28.9c0,.3.3.4.5.4.3,0,.4-.2.4-.5s-.2-.4-.5-.4c-.2.1-.4.2-.4.5ZM20.8,32.7c.1.3.3.4.6.3.2-.1.3-.2.3-.3-.1-.3-.2-.4-.4-.4-.4,0-.6.1-.5.4ZM19.9,60.7c-.1-.3-.2-.4-.5-.4-.2,0-.3.1-.3.4s.2.5.4.5c.3,0,.4-.2.4-.5ZM19.9,38.4c0-.3-.1-.6-.5-.6-.2,0-.3.1-.4.3-.1.3,0,.6.3.7.4,0,.6-.1.6-.4ZM19,.6c0,.2.2.3.3.4.3,0,.5-.1.5-.4s-.2-.4-.4-.5c-.2,0-.4.2-.4.5ZM18,40.1c0-.2-.2-.3-.4-.3-.3,0-.5.2-.5.4,0,.3.2.4.5.4.4-.1.5-.3.4-.5ZM17.5,55.3c.2.1.3-.1.4-.3,0-.2,0-.4-.2-.4-.2-.1-.4.1-.4.3-.1.2,0,.4.2.4ZM17.5,51.6c.2,0,.3-.1.3-.3,0-.1-.1-.4-.2-.4-.3-.1-.4.1-.4.4,0,.2.1.3.3.3ZM17.9,47.6c0-.2-.1-.3-.3-.3-.1,0-.2.1-.3.2-.1.2,0,.4.2.4s.4-.1.4-.3ZM17.5,44.1c.2.1.3-.1.4-.2.1-.3,0-.5-.3-.5-.2,0-.3.1-.3.4,0,.1,0,.2.2.3ZM17.9,13.6c0-.2-.1-.3-.3-.3-.2.1-.3.2-.3.4s.2.3.4.3c.1,0,.2-.2.2-.4ZM17.6,17.3c-.1,0-.2,0-.3.1-.1.2,0,.3.2.4.1,0,.2-.1.2-.2,0-.1,0-.3-.1-.3ZM17.2,21.2c-.1.3.1.5.4.5.2,0,.3-.2.3-.4,0-.3-.1-.5-.4-.5-.1.1-.2.3-.3.4ZM17.2,25.1c0,.2.1.3.3.4.2,0,.3-.1.4-.3,0-.2-.1-.3-.3-.4-.2-.1-.4.1-.4.3ZM18,28.7c0-.2-.2-.3-.4-.3-.3,0-.4.3-.3.5,0,.2.2.3.4.3s.3-.2.3-.5ZM17.5,32.3c-.2,0-.3.1-.3.3s.1.3.3.3.3-.1.3-.3c.1-.2-.1-.3-.3-.3ZM18,10c0-.3-.1-.4-.4-.4-.2,0-.4.1-.4.3,0,.3.2.4.4.5.2,0,.3-.2.4-.4ZM17.2,36.3c0,.3.2.5.4.4.1,0,.2-.2.2-.3,0-.3-.2-.4-.3-.4-.2,0-.3.1-.3.3ZM18,6.2c0-.3-.2-.5-.4-.5s-.3.1-.4.3c0,.3.1.5.4.5.2.1.4-.1.4-.3ZM17.2,2.4c0,.3.1.5.4.5.2,0,.3-.1.4-.3,0-.3,0-.5-.3-.6-.3,0-.5.1-.5.4ZM17.1,59c0,.2.1.3.3.4.3,0,.5,0,.5-.3s-.1-.5-.4-.5c-.2-.1-.4.1-.4.4ZM15.9,37.9c-.2-.1-.5,0-.6.2-.1.3,0,.5.3.6.2.1.4,0,.6-.2,0-.3-.1-.5-.3-.6ZM15.2.6c0,.3.2.4.5.4s.4-.2.5-.4c0-.3-.2-.5-.4-.5-.4,0-.6.2-.6.5ZM15.2,4.3c0,.3.3.5.6.5s.4-.3.3-.5c0-.3-.2-.4-.5-.4-.2,0-.4.2-.4.4ZM14.3,62.6c-.1-.3-.2-.4-.5-.4s-.5.2-.4.5c0,.3.3.4.5.4s.4-.2.4-.5ZM13.7,2.9c.3,0,.5-.1.5-.4s-.2-.5-.4-.5c-.3,0-.5.1-.5.4s.2.4.4.5ZM13.3,6.2c0,.3.2.4.5.4s.5-.2.5-.4c0-.3-.2-.4-.5-.4-.3,0-.5.1-.5.4ZM13.2,9.9c0,.3.2.4.5.4s.4-.2.5-.4c0-.3-.3-.4-.5-.3-.3,0-.5.1-.5.3ZM12.3,60.7c-.1-.2-.2-.3-.4-.3s-.3.2-.3.4c0,.3.2.4.5.3.2,0,.2-.2.2-.4ZM12.3,4.3c0-.3-.2-.4-.5-.4-.2.1-.3.2-.3.4,0,.3.2.4.5.4.2,0,.3-.2.3-.4ZM11.4.5c0,.3.2.4.4.4.3,0,.4-.2.4-.5,0-.2-.1-.3-.3-.3-.3,0-.4.2-.5.4ZM11.4,34.5c0,.3.2.4.5.4.2,0,.3-.2.3-.4-.1-.3-.2-.4-.5-.4-.1.1-.3.3-.3.4ZM10,43.4c-.2,0-.3.1-.4.3-.1.3,0,.5.3.5.2,0,.3-.1.4-.3.1-.3,0-.5-.3-.5ZM10.3,36.3c0-.2-.2-.3-.4-.3-.1,0-.2.2-.2.3,0,.2.1.4.3.4s.3-.2.3-.4ZM10,39.8c-.2,0-.3.2-.3.4,0,.1.1.3.2.3.2.1.4-.1.4-.3,0-.2-.1-.4-.3-.4ZM10.1,32.9c.1,0,.2-.2.2-.3,0-.2-.1-.4-.3-.4s-.3.2-.3.4c.1.3.2.4.4.3ZM10.3,28.9c0-.3-.1-.4-.4-.5-.2,0-.3.2-.3.3,0,.3.1.4.4.5.2.1.3-.1.3-.3ZM10.3,25.1c0-.3-.2-.4-.4-.4s-.3.2-.3.4c0,.3.2.4.4.4.2-.1.4-.2.3-.4ZM9.7,17.6c0,.1.2.2.3.2.2,0,.3-.1.3-.3s-.1-.3-.3-.3c-.3,0-.4.2-.3.4ZM9.9,14.1c.2,0,.3-.1.4-.3,0-.2-.1-.3-.2-.4-.2-.1-.3.1-.4.3,0,.1.1.3.2.4ZM9.9,21.6c.2,0,.3-.1.4-.3,0-.2-.1-.3-.3-.3-.1,0-.2.1-.3.2-.1.2,0,.4.2.4ZM9.7,2.4c0,.2.1.3.3.3s.3-.2.3-.4-.1-.3-.3-.3c-.2.1-.3.2-.3.4ZM10,5.9c-.2,0-.3.1-.3.3s.1.3.3.4c.2,0,.3-.1.3-.3,0-.3-.1-.4-.3-.4ZM9.6,9.9c0,.3.1.5.4.4.2,0,.3-.2.3-.4s-.1-.3-.3-.4c-.2.1-.4.2-.4.4ZM8.1,41.5c-.3,0-.4.2-.4.5s.2.4.5.3c.2-.1.4-.2.4-.5,0-.2-.2-.4-.5-.3ZM8.6,8.1c0-.2-.2-.3-.4-.3-.3,0-.5.1-.5.4,0,.2.2.3.4.4.2-.1.4-.3.5-.5ZM7.7.6c0,.2.1.3.3.3.3,0,.4-.2.4-.5,0-.2-.1-.3-.3-.3-.2.1-.4.2-.4.5ZM7.7,4.3c0,.1.2.3.3.4.3.1.4,0,.5-.3,0-.3-.1-.5-.4-.5-.3-.1-.4.1-.4.4ZM7.8,53.5c.2.2.5.1.6,0,.2-.3.1-.5-.1-.6-.2-.2-.5-.1-.6.1-.1.2-.1.4.1.5ZM6.7,55.2c0-.3-.2-.5-.5-.5s-.4.2-.4.5c0,.4.2.5.5.5.3-.1.4-.3.4-.5ZM5.9,2.5c0,.2.1.3.3.3.3,0,.4-.2.5-.4,0-.2-.2-.4-.5-.4-.2,0-.3.3-.3.5ZM5.7,6.3c0,.3.3.3.5.4.3,0,.4-.2.4-.5s-.2-.4-.5-.4c-.2,0-.4.2-.4.5ZM3.9.5c0,.3.1.4.4.5.2,0,.5,0,.5-.3s-.1-.5-.4-.5c-.3-.1-.5,0-.5.3ZM3.8,30.7c0,.3.2.4.5.5.3,0,.4-.2.4-.5s-.2-.5-.4-.5c-.3.1-.5.3-.5.5ZM2.9,58.9c0-.3-.2-.4-.5-.4s-.5.2-.5.4c0,.3.2.4.5.4.3,0,.5-.1.5-.4ZM2.9,36.3c0-.2-.2-.3-.4-.4-.3,0-.5.1-.5.4s.2.5.4.5c.3,0,.5-.2.5-.5ZM2.4,39.8c-.2,0-.4.1-.4.3s.1.3.3.4c.2,0,.3-.1.4-.3,0-.2-.1-.4-.3-.4ZM2.3,44.1c.2,0,.3-.1.4-.3,0-.2,0-.4-.2-.4-.1,0-.3.1-.4.2-.2.3-.1.4.2.5ZM2.4,50.9c-.3,0-.4.2-.4.4s.1.3.3.4c.3,0,.5-.1.5-.3.1-.3-.1-.5-.4-.5ZM2.2,55.4c.2.1.3.1.4,0,.2-.3.1-.5-.1-.6-.2-.1-.4,0-.5.1-.1.2,0,.4.2.5ZM2.9,32.6c0-.3-.2-.4-.5-.4s-.5.2-.5.4c0,.3.2.4.5.4.3.1.5-.1.5-.4ZM2.7,13.7c0-.2-.1-.4-.3-.4s-.3.2-.4.3c0,.2.1.3.2.3.3.1.5,0,.5-.2ZM2.4,24.7c-.2-.1-.3.1-.4.3-.1.3.1.4.4.4.2,0,.3-.1.3-.4-.1-.1-.2-.2-.3-.3ZM2.3,17.1c-.2,0-.3.2-.3.4s.1.3.3.3.3-.2.3-.4c.1-.2-.1-.3-.3-.3ZM2,21.3c0,.2.1.3.3.3s.3-.1.3-.3-.1-.3-.3-.3-.3.1-.3.3ZM2,29c0,.2.2.3.4.3.3,0,.4-.2.4-.5-.1-.2-.2-.3-.4-.3-.3,0-.5.2-.4.5ZM2.9,10c0-.3-.2-.5-.5-.5s-.4.2-.4.5c0,.2.2.3.3.4.3,0,.5-.1.6-.4ZM2,2.4c0,.3.2.4.4.4s.3-.2.3-.4-.1-.3-.3-.3c-.3,0-.4.1-.4.3ZM2,6.3c0,.1.2.3.4.3s.5-.2.4-.4c0-.3-.2-.4-.5-.4-.2.1-.4.2-.3.5ZM1.9,47.5c0,.3.2.4.5.3.2,0,.2-.2.2-.4s-.2-.3-.4-.3c-.1.1-.3.2-.3.4ZM1.1,53.3c0-.3-.2-.5-.4-.5-.3,0-.5.1-.5.4s.2.4.4.5c.2-.1.5-.1.5-.4Z"/>
      <path d="M21.3,29.3c.3,0,.4-.2.4-.5s-.2-.4-.5-.4c-.3.1-.5.2-.4.5,0,.3.2.4.5.4Z"/>
      <path d="M49.4.9c.2.1.3-.1.4-.2.1-.3,0-.5-.3-.5-.2,0-.3.1-.3,0,0,.5.1.6.2.7Z"/>
      <path d="M49.5,8.5c.3,0,.5-.1.5-.4s-.2-.4-.5-.4c-.3.1-.4.2-.3.5,0,.1.1.3.3.3Z"/>
      <path d="M49.5,4.6c.2,0,.3-.1.3-.3s-.1-.3-.4-.3c-.2,0-.3.1-.3.3.1.2.2.3.4.3Z"/>
      <path d="M49.5,19.8c.3,0,.5-.1.5-.4s-.2-.5-.6-.5c-.2.1-.4.3-.4.5.1.3.3.4.5.4Z"/>
      <path d="M49.2,38.1c-.1.3.1.5.4.5.2,0,.3-.1.3-.1,0-.5-.1-.6-.3-.6-.2-.1-.4,0-.4.2Z"/>
      <path d="M47.6,2.8c.3,0,.5-.1.5-.4.1-.3-.1-.4-.4-.4-.1,0-.3.2-.4.3-.1.2,0,.4.3.5Z"/>
      <path d="M50,34.4c-.1-.3-.3-.4-.5-.3-.1.1-.3.2-.3.4,0,.3.2.4.4.4.2,0,.4-.2.4-.5Z"/>
      <path d="M49.5,11.3c-.3.1-.4.3-.4.5s.1.3.4.3.5-.2.5-.4-.2-.4-.5-.4Z"/>
      <path d="M49.2,15.7c0,.2.2.3.4.3.3,0,.5-.1.5-.4s-.2-.4-.5-.4c-.3,0-.5.2-.4.5Z"/>
      <path d="M49.6,22.7c-.3,0-.4.2-.4.5s.1.5.4.5.5-.2.5-.6c-.1-.3-.3-.5-.5-.4Z"/>
      <path d="M44,36.7c.2-.1.2-.2.2-.4s-.2-.3-.4-.3-.3.2-.3.4c.1.2.3.4.5.3Z"/>
      <path d="M44,32.2c-.3-.1-.5.1-.5.4,0,.1.2.3.3.4.3.1.4-.1.5-.4-.1-.1-.2-.3-.3-.4Z"/>
      <path d="M43.5,43.7c0,.3.1.5.4.5.2,0,.3-.1.3-.3,0-.3-.1-.5-.4-.5-.1,0-.3.1-.3.3Z"/>
      <path d="M44,28.4c-.3,0-.4.2-.4.5,0,.2.2.3.4.4.3.1.5-.1.5-.4-.1-.3-.3-.5-.5-.5Z"/>
      <path d="M43.9,47.1c-.2,0-.4.1-.3.3,0,.3.2.5.5.5s.4-.2.4-.5c-.2-.2-.4-.3-.6-.3Z"/>
      <path d="M44,39.8c-.3,0-.4.1-.5.4,0,.2.1.3.3.3.3,0,.4-.1.4-.3.1-.2,0-.4-.2-.4Z"/>
      <path d="M43.6,59c0,.3.3.4.5.3.3,0,.5-.2.4-.4,0-.3-.3-.4-.5-.4-.3,0-.5.2-.4.5Z"/>
      <path d="M45.7,1.1c.2.1.5,0,.6-.3s-.1-.6-.4-.7C45.7,0,45.4.1,45.3.4c-.1.4.1.5.4.7Z"/>
      <path d="M55.2,10.4c.3,0,.4-.2.4-.5-.1-.3-.3-.4-.5-.4-.3,0-.5.2-.4.5,0,.3.3.4.5.4Z"/>
      <path d="M53.2,12.3c.3,0,.6-.1.6-.5,0-.3-.3-.4-.5-.4-.3,0-.5.1-.5.4-.1.3.1.4.4.5Z"/>
      <path d="M53.3,4.7c.2,0,.3-.2.3-.3,0-.3-.2-.4-.4-.4s-.4.1-.4.3c0,.3.2.4.5.4Z"/>
      <path d="M51,6.1c0,.3.1.5.4.5s.5-.2.5-.4c0-.3-.2-.4-.5-.4-.2,0-.4.1-.4.3Z"/>
      <path d="M51.4,50.9c-.3,0-.4.2-.4.5s.2.4.5.4.4-.2.4-.5-.2-.4-.5-.4Z"/>
      <path d="M53.2,8.5c.3,0,.4-.2.4-.5,0-.2-.2-.3-.3-.4-.3,0-.5.1-.5.3,0,.4.2.6.4.6Z"/>
      <path d="M55.1,5.7c-.2,0-.3.2-.4.3,0,.3,0,.5.3.5s.5-.2.5-.4c.1-.2-.1-.4-.4-.4Z"/>
      <path d="M43.9,13.3c-.2,0-.4.1-.4.3,0,.3.1.5.4.4.1,0,.2-.2.3-.3.1-.3-.1-.4-.3-.4Z"/>
      <path d="M53.2,1c.2,0,.5-.1.5-.4s-.1-.5-.4-.5c-.2,0-.5.1-.5.4,0,.2.1.4.4.5Z"/>
      <path d="M49.8,45.7c0-.2-.1-.4-.3-.4s-.4.1-.4.3.1.4.3.4c.3,0,.4-.1.4-.3Z"/>
      <path d="M49.5,31.1c.3,0,.4-.2.4-.5-.1-.3-.2-.4-.5-.4-.2,0-.3.2-.3.4,0,.4.2.5.4.5Z"/>
      <path d="M49.4,27.3c.2.1.3-.1.4-.2.1-.3,0-.5-.3-.5-.2,0-.3.1-.3.3,0,.2.1.4.2.4Z"/>
      <path d="M49.6,49.8c.2,0,.3-.2.3-.4-.1-.2-.2-.3-.4-.2-.2,0-.3.2-.3.4.1.1.2.2.4.2Z"/>
      <path d="M49.5,41.5c-.2,0-.3.1-.3.4s.2.4.5.4c.2,0,.4-.2.4-.4-.1-.3-.3-.4-.6-.4Z"/>
      <path d="M51.4,14.3c.3,0,.4-.2.5-.5,0-.4-.2-.6-.5-.6-.4,0-.6.2-.6.5,0,.4.3.6.6.6Z"/>
      <path d="M51.4,10.4c.3,0,.6-.1.6-.5,0-.3-.3-.4-.6-.4s-.5.2-.5.4c0,.3.2.5.5.5Z"/>
      <path d="M51.3,2.8c.2.1.4-.1.4-.2.1-.3,0-.5-.4-.5-.2,0-.3.1-.3.3s.1.3.3.4Z"/>
      <path d="M49.5,52.7c-.3,0-.4.2-.4.5s.1.5.4.5c.4,0,.6-.3.5-.6,0-.2-.2-.4-.5-.4Z"/>
      <path d="M41.9,49.8c.3,0,.5-.1.5-.4s-.1-.5-.4-.5c-.1,0-.3.2-.4.3-.1.3,0,.5.3.6Z"/>
      <path d="M40.1,33c.3,0,.4-.2.4-.5,0-.2-.1-.4-.4-.3-.3,0-.4.2-.4.5.1.2.2.3.4.3Z"/>
      <path d="M40.2,44.1c.2,0,.3-.2.3-.4-.1-.3-.2-.4-.5-.3-.2,0-.3.2-.3.4.1.3.3.4.5.3Z"/>
      <path d="M55.1,59.3c.3,0,.4-.2.4-.4-.1-.3-.2-.4-.5-.3-.1,0-.3.2-.3.4,0,.1.2.3.4.3Z"/>
      <path d="M43.6,17.5c0,.3.2.4.5.3.2-.1.2-.3.2-.5-.1-.2-.2-.3-.2-.3-.5.2-.5.3-.5.5Z"/>
      <path d="M38.2,60.4c-.1.1-.2.2-.2.3,0,.3.2.4.5.3.2-.1.2-.2.2-.4-.1-.1-.2-.2-.5-.2Z"/>
      <path d="M55.2,2.8c.3,0,.4-.2.3-.5-.1-.2-.2-.4-.5-.3-.1.1-.3.2-.3.4,0,.3.2.4.5.4Z"/>
      <path d="M40.2,2.8c.2,0,.3-.2.3-.4s-.1-.3-.4-.3c-.2.1-.3.2-.3.4.1.2.2.3.4.3Z"/>
      <path d="M40.2,9.6c-.2,0-.4.1-.4.3,0,.1.1.4.2.4.3.1.4-.1.5-.3.1-.3-.1-.4-.3-.4Z"/>
      <path d="M38.5,30.4c-.2-.1-.3-.1-.4.1-.1.2,0,.4.1.5.2.1.3.1.3.1.2-.4.1-.6,0-.7Z"/>
      <path d="M38.5,34.2c-.2-.1-.3,0-.4.1-.1.2,0,.4.1.5.2.1.3,0,.3.1.2-.5.1-.6,0-.7Z"/>
      <path d="M38,38.2c0,.2.1.3.3.4.2,0,.3-.1.3-.1,0-.4-.1-.5-.2-.5-.3-.2-.4,0-.4.2Z"/>
      <path d="M41.7,45.5c0,.3.1.4.3.5s.3-.1.4-.2c.1-.3-.1-.5-.3-.4-.3-.1-.4,0-.4.1Z"/>
      <path d="M38.2,15.9c.2.1.4,0,.4-.2s-.1-.3-.2-.4c-.3,0-.4.1-.4.3,0,.1.1.2.2.3Z"/>
      <path d="M38.3,53c-.1,0-.2.1-.2.2.1.1.1.2.2.3.1,0,.3,0,.3-.1,0-.2-.1-.4-.3-.4Z"/>
      <path d="M38.3,56.7c-.1,0-.2.1-.2.2.1.1.1.2.2.3.1,0,.3,0,.3-.1,0-.2-.1-.4-.3-.4Z"/>
      <path d="M38.3,46c.2,0,.3-.2.3-.4s-.2-.3-.4-.3-.3.2-.3.4c.1.1.2.3.4.3Z"/>
      <path d="M38.2,49.7c.2.1.4,0,.4-.2s-.1-.3-.3-.4c-.2,0-.3.1-.3.3,0,.1.1.3.2.3Z"/>
      <path d="M40,63c.3,0,.5-.1.5-.4,0-.2-.1-.4-.3-.4-.3,0-.5.1-.5.4s.1.4.3.4Z"/>
      <path d="M42.1,1c.3,0,.4-.1.5-.4,0-.3-.2-.4-.5-.4s-.4.2-.4.5c0,.1.2.3.4.3Z"/>
      <path d="M43.8,5.8c-.2.1-.3.2-.2.4,0,.2.2.3.4.3s.3-.2.3-.4c-.1-.2-.2-.4-.5-.3Z"/>
      <path d="M42,8.4c.3,0,.4-.1.5-.3,0-.3-.1-.5-.4-.5s-.4.2-.4.4c0,.3.1.4.3.4Z"/>
      <path d="M42.2,4.6c.2,0,.3-.2.2-.4-.1-.2-.2-.3-.4-.2-.2,0-.3.2-.3.3,0,.3.2.4.5.3Z"/>
      <path d="M43.9,10.4c.3,0,.4-.2.4-.5s-.2-.5-.4-.5c-.3,0-.4.2-.4.5s.2.5.4.5Z"/>
      <path d="M44,2.8c.2-.1.2-.2.2-.4-.1-.2-.2-.4-.4-.3-.1.1-.3.2-.3.4s.3.3.5.3Z"/>
      <path d="M43.9,21.7c.2,0,.3-.1.4-.3,0-.2-.1-.3-.3-.4-.3,0-.4.2-.4.4,0,.3.1.3.3.3Z"/>
      <path d="M43.8,25.5c.2,0,.4-.1.4-.3.1-.3,0-.5-.3-.5-.2,0-.3.1-.4.3,0,.3.1.4.3.5Z"/>
      <path d="M41.7,30.6c-.1.2,0,.4.2.4.2.1.5,0,.5-.3,0-.1-.1-.3-.2-.4-.3.1-.4.1-.5.3Z"/>
      <path d="M41.9,34.9c.3.1.5,0,.5-.3,0-.2,0-.4-.2-.4-.3-.1-.5,0-.6.3,0,.1.1.3.3.4Z"/>
      <path d="M42.1,11.5c-.2,0-.4.1-.4.3,0,.3.2.5.4.4.2,0,.3-.2.3-.4,0-.2-.1-.3-.3-.3Z"/>
      <path d="M42.1,38c-.2-.1-.4,0-.4.2-.1.3.1.4.3.5.2,0,.3-.1.4-.3,0-.2-.1-.3-.3-.4Z"/>
      <path d="M41.9,23.6c.3.1.4-.1.5-.4,0-.2-.1-.3-.3-.3s-.3.1-.4.3c0,.1.1.3.2.4Z"/>
      <path d="M41.9,26.7c-.2.1-.3.2-.2.4,0,.2.2.3,0,.3.6-.1.7-.2.7-.4,0-.3-.2-.4-.5-.3Z"/>
      <path d="M42,42.3c.3.1.5-.1.6-.3.1-.3-.1-.5-.4-.5s-.5.1-.6.4c-.1.2.1.4.4.4Z"/>
      <path d="M42.2,15.9c.1,0,.1-.2.2-.3,0-.2-.2-.3-.4-.3-.1,0-.2.2-.2.3,0,.3.2.4.4.3Z"/>
      <path d="M42,19.7c.2,0,.3-.1.3-.3s-.1-.3-.3-.3c-.1,0-.2.1-.2.2-.1.2.1.3.2.4Z"/>
      <path d="M60.9,26.6c-.3-.1-.4.1-.5.4,0,.2.1.4.3.4.3,0,.4-.1.5-.4,0-.2-.1-.4-.3-.4Z"/>
      <path d="M57.2,23.7c.3-.1.5-.3.4-.7-.1-.2-.3-.4-.5-.4-.4.1-.5.3-.4.7-.1.3.2.4.5.4Z"/>
      <path d="M59,36c-.3,0-.5.1-.5.4-.1.3.1.6.5.6.3,0,.4-.2.4-.3.1-.5-.1-.7-.4-.7Z"/>
      <path d="M60.9,12.2c.2-.1.3-.2.3-.4s-.2-.3-.4-.2c-.2,0-.3.2-.3.4s.2.3.4.2Z"/>
      <path d="M60.8,16c.2,0,.3-.1.3-.3,0-.3-.1-.5-.4-.5-.2,0-.3.2-.3.3,0,.3.1.5.4.5Z"/>
      <path d="M59.2,55.2c.1-.2-.1-.3-.3-.4-.2,0-.3.1-.4.3-.1.2.1.3.3.4.2-.1.4-.1.4-.3Z"/>
      <path d="M59,47.2c-.3,0-.4.2-.4.4s.1.3.3.3c.3,0,.4-.1.4-.4,0-.2-.1-.3-.3-.3Z"/>
      <path d="M58.9,59.3c.2,0,.3-.1.4-.3,0-.3-.1-.5-.4-.5-.2,0-.3.2-.4.3,0,.3.2.5.4.5Z"/>
      <path d="M58.9,62.3c-.3,0-.4.2-.4.5,0,.2.2.3.4.3.3,0,.4-.2.5-.4-.1-.3-.3-.5-.5-.4Z"/>
      <path d="M60.8,46.1c.3,0,.4-.2.4-.5,0-.2-.2-.3-.4-.4-.3,0-.4.2-.4.5.1.2.2.4.4.4Z"/>
      <path d="M60.7,19.8c.3,0,.4-.1.5-.4,0-.3-.1-.5-.4-.5-.3-.1-.5.1-.5.4s.2.5.4.5Z"/>
      <path d="M61.1,41.8c0-.2-.2-.3-.3-.3-.3,0-.4.2-.4.4,0,.1.2.3.3.4.3,0,.4-.2.4-.5Z"/>
      <path d="M60.9,37.9c-.3-.1-.4.1-.5.4,0,.2.1.4.3.4.3,0,.4-.1.5-.4,0-.2-.1-.4-.3-.4Z"/>
      <path d="M60.8,52.8c-.2,0-.3.2-.3.4,0,.3.1.5.5.4.2-.1.2-.2.2-.4-.1-.3-.2-.4-.4-.4Z"/>
      <path d="M60.8,34.1c-.3,0-.4.2-.4.4s.1.3.3.3.3-.2.3-.4c.1-.1,0-.3-.2-.3Z"/>
      <path d="M60.7,23.6c.3,0,.4-.2.4-.5,0-.2-.1-.3-.3-.3-.3,0-.4.2-.4.5,0,.1.1.3.3.3Z"/>
      <path d="M38.3,12.1c.2,0,.3-.1.3-.3-.1-.2-.2-.3-.4-.3-.1,0-.2.2-.2.3,0,.2.1.3.3.3Z"/>
      <path d="M59,40.5c.2,0,.3-.1.3-.3,0-.3-.2-.4-.4-.4s-.3.2-.3.3c-.1.3.1.4.4.4Z"/>
      <path d="M60.8,49.8c.3-.1.3-.3.3-.6-.1-.1-.2-.2-.4-.2-.2.1-.4.3-.3.5.1.3.3.3.4.3Z"/>
      <path d="M57,49c-.2,0-.3.2-.3.4,0,.3.2.4.4.4s.3-.1.3-.3c0-.3-.1-.5-.4-.5Z"/>
      <path d="M57,56.5c-.3,0-.4.2-.4.5.1.3.3.4.5.4.3,0,.4-.2.4-.5-.1-.3-.2-.4-.5-.4Z"/>
      <path d="M58.8,44.1c.3.1.4,0,.5-.3,0-.2-.1-.5-.3-.5-.3,0-.4.2-.4.4-.1.2.1.4.2.4Z"/>
      <path d="M57,34.9c.3,0,.5-.1.5-.4,0-.1-.2-.3-.2-.4-.4,0-.5.1-.5.4-.1.2,0,.4.2.4Z"/>
      <path d="M57.1,60.4c-.1,0-.3.1-.4.3-.1.3.1.4.3.5.2,0,.5,0,.5-.3,0-.4-.2-.5-.4-.5Z"/>
      <path d="M55.1,62.3c-.1,0-.3.2-.3.4,0,.3.1.5.4.5s.4-.2.4-.5c-.1-.4-.3-.5-.5-.4Z"/>
      <path d="M55.1,24.7c-.2,0-.3.1-.3.4s.2.5.4.5c.3,0,.4-.2.4-.5,0-.3-.2-.5-.5-.4Z"/>
      <path d="M55.2,35.9c-.3,0-.5.2-.5.4,0,.3.2.4.5.4.2,0,.3-.1.4-.3,0-.2-.1-.4-.4-.5Z"/>
      <path d="M57,38.7c.3,0,.5,0,.5-.3s-.2-.5-.4-.5c-.3,0-.4.2-.4.5,0,.1.1.2.3.3Z"/>
      <path d="M58.9,24.7c-.2,0-.3.2-.3.4,0,.3.2.5.4.5.3,0,.4-.2.4-.5-.1-.3-.3-.5-.5-.4Z"/>
      <path d="M57,26.6c-.2,0-.4.1-.4.3,0,.3.2.4.4.5.3,0,.4-.1.4-.4.1-.3-.1-.4-.4-.4Z"/>
      <path d="M58.5,32.7c0,.2.1.3.3.4.3,0,.4-.1.5-.3,0-.3-.1-.4-.3-.4-.2-.1-.4,0-.5.3Z"/>
      <path d="M58.8,29.3c.2,0,.4-.1.4-.2.1-.3,0-.5-.3-.6-.2,0-.4.1-.4.3-.1.2.1.4.3.5Z"/>
      <path d="M56.9,46c.2.1.4.1.6-.2.1-.3,0-.5-.3-.6-.2-.1-.3,0-.4.1-.2.3-.2.6.1.7Z"/>
      <path d="M57.2,30.4c-.3,0-.4.1-.5.4,0,.2.1.3.3.4.3,0,.4-.2.5-.4,0-.3-.1-.4-.3-.4Z"/>
      <path d="M57.1,52.9c-.2,0-.3.1-.4.3,0,.2.1.4.3.4s.3-.1.4-.3c.1-.2-.1-.4-.3-.4Z"/>
      <path d="M57.1,42.3c.3-.1.4-.2.4-.5s-.3-.4-.5-.3c-.1.1-.3.2-.3.4-.1.2.1.4.4.4Z"/>
      <path d="M58.9,50.9c-.3,0-.4.2-.4.5,0,.2.2.3.4.3.3,0,.4-.1.5-.4-.1-.3-.2-.4-.5-.4Z"/>
      <path d="M59,20.9c-.2,0-.5,0-.5.3s.1.5.4.5c.2,0,.5,0,.5-.3s-.1-.5-.4-.5Z"/>
      <path d="M58.9,13.3c-.2,0-.3.1-.4.3,0,.3.1.5.4.5.2,0,.3-.1.4-.3,0-.3-.1-.5-.4-.5Z"/>
      <path d="M58.9,9.5c-.3.1-.4.2-.4.5,0,.2.2.3.3.3.3,0,.5-.1.5-.3.1-.3-.1-.4-.4-.5Z"/>
      <path d="M58.6,17.4c-.1.3.1.4.3.5.2,0,.3-.1.3-.1.1-.4,0-.5-.2-.6-.1,0-.3,0-.4.2Z"/>
      <path d="M60.7,8.5c.2,0,.3-.1.3-.3,0-.3-.1-.5-.4-.5-.2,0-.3.1-.4.3.1.3.3.5.5.5Z"/>
      <path d="M62.7,29.2c.2,0,.4-.1.4-.3,0-.3-.1-.5-.4-.5s-.5.1-.5.4.3.4.5.4Z"/>
      <path d="M60.8,4.7c.2,0,.5-.1.5-.4s-.2-.5-.4-.5c-.3,0-.5.1-.5.4-.1.3.1.5.4.5Z"/>
      <path d="M60.8.9c.2,0,.4-.1.4-.3,0-.3-.1-.5-.4-.5-.2,0-.3.2-.4.4,0,.2.2.4.4.4Z"/>
      <path d="M57.2,4.7c.2,0,.3-.2.3-.4-.1-.2-.2-.4-.5-.4s-.4.2-.4.5c.1.2.3.3.6.3Z"/>
      <path d="M57,19.1c-.2,0-.3.2-.3.4.1.2.2.3.4.3.3,0,.4-.2.3-.5-.1-.2-.3-.3-.4-.2Z"/>
      <path d="M58.9,2.8c.3,0,.4-.1.5-.4-.1-.3-.2-.4-.4-.4-.3,0-.4.1-.5.4,0,.2.2.3.4.4Z"/>
      <path d="M57.1,12.2c.2-.1.4-.2.3-.4-.1-.1-.2-.3-.4-.3-.3,0-.4.1-.3.4.1.3.3.4.4.3Z"/>
      <path d="M57.1,8.5c.3-.1.4-.2.3-.5-.1-.1-.3-.3-.4-.3-.3,0-.5.2-.4.5,0,.2.3.3.5.3Z"/>
      <path d="M57.5,15.5c0-.2-.2-.3-.4-.3-.3,0-.5.1-.5.4s.2.4.5.4c.3,0,.4-.2.4-.5Z"/>
      <path d="M62.7,6.6c.3,0,.4-.2.5-.4,0-.2-.2-.4-.5-.4-.2,0-.5.2-.5.4,0,.3.3.4.5.4Z"/>
      <path d="M58.8,6.6c.3,0,.5-.1.6-.4,0-.3-.2-.4-.4-.5-.3,0-.5.2-.5.5,0,.2.1.4.3.4Z"/>
      <path d="M60.7,60.4c-.3.1-.4.3-.3.5.1.2.2.3.4.3.3-.1.4-.3.3-.6,0-.2-.2-.3-.4-.2Z"/>
      <path d="M57.1.9c.3,0,.4-.1.4-.4,0-.2-.2-.3-.4-.3-.3,0-.4.1-.4.4.1.2.2.3.4.3Z"/>
      <path d="M62.7,2.9c.3,0,.4-.2.4-.5s-.2-.4-.5-.4c-.1,0-.3.2-.3.4-.1.3.2.5.4.5Z"/>
      <path d="M62.3,47.6c0,.2.1.3.3.4.3,0,.4-.1.5-.4,0-.3-.1-.5-.4-.5s-.4.2-.4.5Z"/>
      <path d="M62.8,62.3c-.2,0-.3.1-.4.3-.1.3,0,.5.3.5.2,0,.4-.1.4-.3,0-.3-.1-.5-.3-.5Z"/>
      <path d="M63,40.4c.1-.2,0-.3-.1-.4-.1,0-.2.1-.3.1-.1.2,0,.3.1.4.1,0,.2,0,.3-.1Z"/>
      <path d="M60.9,30.4c-.3,0-.4.2-.5.4,0,.2.1.3.3.4.3.1.4-.1.5-.3.1-.3,0-.5-.3-.5Z"/>
      <path d="M61,56.7c-.3-.1-.5.1-.5.3s.1.4.3.4c.3,0,.4-.1.5-.2,0-.3-.1-.5-.3-.5Z"/>
      <path d="M62.7,44.1c.2,0,.3-.1.4-.3,0-.2-.1-.4-.2-.4-.2-.1-.3.1-.4.3-.1.2,0,.3.2.4Z"/>
      <path d="M62.6,59.3c.3,0,.4-.1.4-.4,0-.2-.1-.3-.3-.4-.3,0-.4.1-.4.4,0,.2.1.3.3.4Z"/>
      <path d="M62.5,51.2c0,.1.1.4.2.4.2.1.3-.1.4-.3,0-.2-.1-.3-.2-.4-.3,0-.4.1-.4.3Z"/>
      <path d="M63.1,13.8c0-.1-.1-.3-.3-.4-.3-.1-.4.1-.4.4,0,.2.1.3.3.3.3-.1.5-.1.4-.3Z"/>
      <path d="M62.8,21c-.2,0-.3.1-.3.3s.1.5.4.4c.1,0,.2-.2.3-.3-.1-.3-.2-.4-.4-.4Z"/>
      <path d="M62.7,17.1c-.1,0-.2.3-.2.4,0,.2,0,.5.4.5.3-.1.4-.2.4-.5-.2-.3-.4-.5-.6-.4Z"/>
      <path d="M62.7,9.5c-.3.1-.4.2-.3.5,0,.1.2.3.4.3.3,0,.5-.1.4-.4,0-.2-.2-.4-.5-.4Z"/>
      <path d="M62.9,35.9c-.3-.1-.5.1-.6.3-.1.3,0,.6.4.7.3,0,.4-.2.5-.4,0-.3-.1-.5-.3-.6Z"/>
      <path d="M62.8,54.6c-.3,0-.4.2-.4.4s.1.5.4.5.4-.2.4-.4c-.1-.2-.2-.4-.4-.5Z"/>
      <path d="M63.1,32.6c0-.3-.1-.5-.4-.4-.1,0-.2.2-.3.4,0,.2.1.3.3.3.3,0,.4-.1.4-.3Z"/>
      <path d="M62.8,24.7c-.3,0-.5.2-.5.4,0,.1.2.3.3.4.2.1.5,0,.6-.3,0-.3-.2-.5-.4-.5Z"/>
      <path d="M40.1,6.5c.2,0,.4-.1.4-.3s-.1-.3-.3-.4c-.2,0-.4.1-.4.3,0,.3.2.4.3.4Z"/>
      <path d="M17.6,5.8c-.2,0-.3.1-.4.3,0,.3.1.5.4.5.2,0,.3-.1.4-.3,0-.4-.1-.5-.4-.5Z"/>
      <path d="M13.7,62.2c-.3,0-.5.2-.4.5,0,.3.3.4.5.4.3,0,.4-.2.4-.5,0-.2-.2-.4-.5-.4Z"/>
      <path d="M15.7,1c.3,0,.4-.2.5-.4,0-.3-.2-.5-.4-.5-.4,0-.5.2-.5.5-.1.3.1.4.4.4Z"/>
      <path d="M13.7,2.9c.3,0,.5-.1.5-.4s-.2-.5-.4-.5c-.3,0-.5.1-.5.4s.2.4.4.5Z"/>
      <path d="M17.6,2.9c.2,0,.3-.1.4-.3,0-.3,0-.5-.3-.6-.3,0-.5.1-.5.4-.1.3.1.5.4.5Z"/>
      <path d="M15.9,37.9c-.2-.1-.5,0-.6.2-.1.3,0,.5.3.6.2.1.4,0,.6-.2,0-.3-.1-.5-.3-.6Z"/>
      <path d="M13.8,6.6c.3,0,.5-.2.5-.4,0-.3-.2-.4-.5-.4s-.5.2-.5.4.2.4.5.4Z"/>
      <path d="M17.5,59.3c.3,0,.5,0,.5-.3s-.1-.5-.4-.5-.4.2-.4.5c-.1.1.1.3.3.3Z"/>
      <path d="M15.8,4.8c.3,0,.4-.3.3-.5,0-.3-.2-.4-.5-.4-.3.1-.5.2-.4.5,0,.3.3.4.6.4Z"/>
      <path d="M9.9,36c-.1,0-.2.2-.2.3,0,.2.1.4.3.4s.3-.2.3-.4-.2-.3-.4-.3Z"/>
      <path d="M10,43.4c-.2,0-.3.1-.4.3-.1.3,0,.5.3.5.2,0,.3-.1.4-.3.1-.3,0-.5-.3-.5Z"/>
      <path d="M13.7,10.4c.3,0,.4-.2.5-.4,0-.3-.3-.4-.5-.3-.2,0-.4.1-.4.3-.1.2.1.4.4.4Z"/>
      <path d="M10,39.8c-.2,0-.3.2-.3.4,0,.1.1.3.2.3.2.1.4-.1.4-.3,0-.2-.1-.4-.3-.4Z"/>
      <path d="M11.9,34.9c.2,0,.3-.2.3-.4-.1-.3-.2-.4-.5-.4-.1,0-.3.2-.3.4,0,.3.2.5.5.4Z"/>
      <path d="M21.4,25.4c.2,0,.2-.2.2-.4s-.2-.3-.4-.3c-.2.1-.3.2-.3.4.1.2.3.4.5.3Z"/>
      <path d="M11.9,60.4c-.2,0-.3.2-.3.4,0,.3.2.4.5.3.2-.1.3-.2.2-.4-.1-.2-.2-.3-.4-.3Z"/>
      <path d="M11.8,3.9c-.2.1-.3.2-.3.4,0,.3.2.4.5.4.2,0,.3-.2.3-.4,0-.3-.2-.4-.5-.4Z"/>
      <path d="M17.5,55.3c.2.1.3-.1.4-.3,0-.2,0-.4-.2-.4-.2-.1-.4.1-.4.3-.1.2,0,.4.2.4Z"/>
      <path d="M10.1,32.9c.1,0,.2-.2.2-.3,0-.2-.1-.4-.3-.4s-.3.2-.3.4c.1.3.2.4.4.3Z"/>
      <path d="M38.1,19.4c0,.1.1.2.2.2s.2-.1.3-.1c0-.1,0-.2-.1-.3-.2-.1-.4,0-.4.2Z"/>
      <path d="M17.7,39.7c-.3,0-.5.2-.5.4,0,.3.2.4.5.4s.4-.2.4-.5c-.1-.1-.3-.3-.4-.3Z"/>
      <path d="M17.6,47.3c-.1,0-.2.1-.3.2-.1.2,0,.4.2.4s.3-.1.4-.3c0-.2-.1-.3-.3-.3Z"/>
      <path d="M17.5,51.6c.2,0,.3-.1.3-.3,0-.1-.1-.4-.2-.4-.3-.1-.4.1-.4.4,0,.2.1.3.3.3Z"/>
      <path d="M17.6,36.7c.1,0,.2-.2.2-.3,0-.3-.2-.4-.3-.4-.2,0-.3.1-.3.3,0,.3.2.5.4.4Z"/>
      <path d="M19.5,37.8c-.2,0-.3.1-.4.3-.1.3,0,.6.3.7.3,0,.5-.1.5-.4.1-.3-.1-.5-.4-.6Z"/>
      <path d="M19.4,60.4c-.2,0-.3.1-.3.4s.2.5.4.5c.3,0,.4-.2.4-.5,0-.4-.2-.5-.5-.4Z"/>
      <path d="M21.4,33c.2-.1.3-.2.3-.3-.1-.3-.2-.4-.4-.4-.3,0-.5.2-.4.5-.1.2.2.3.5.2Z"/>
      <path d="M18,28.7c0-.2-.2-.3-.4-.3-.3,0-.4.3-.3.5,0,.2.2.3.4.3s.3-.2.3-.5Z"/>
      <path d="M17.2,32.6c0,.2.1.3.3.3s.3-.1.3-.3c0-.3-.1-.4-.3-.4-.2.1-.3.2-.3.4Z"/>
      <path d="M17.5,25.4c.2,0,.3-.1.4-.3,0-.2-.1-.3-.3-.4-.2,0-.3.1-.4.3,0,.3.1.4.3.4Z"/>
      <path d="M17.6,9.6c-.2,0-.4.1-.4.3,0,.3.2.4.4.5.2,0,.3-.1.4-.3,0-.4-.2-.5-.4-.5Z"/>
      <path d="M17.5,13.4c-.2.1-.3.2-.3.4s.2.3.4.3.3-.2.3-.4c-.1-.2-.1-.4-.4-.3Z"/>
      <path d="M17.5,44.1c.2.1.3-.1.4-.2.1-.3,0-.5-.3-.5-.2,0-.3.1-.3.4,0,.1,0,.2.2.3Z"/>
      <path d="M17.6,21.7c.2,0,.3-.2.3-.4,0-.3-.1-.5-.4-.5-.1,0-.3.2-.3.4,0,.3.1.5.4.5Z"/>
      <path d="M17.6,17.3c-.1,0-.2,0-.3.1-.1.2,0,.3.2.4.1,0,.2-.1.2-.2,0-.1,0-.3-.1-.3Z"/>
      <path d="M11.9.9c.3,0,.4-.2.4-.5,0-.2-.1-.3-.3-.3-.3,0-.5.1-.5.4-.1.3.1.4.4.4Z"/>
      <path d="M2,51.3c0,.2.1.3.3.4.3,0,.5-.1.5-.3,0-.3-.2-.5-.4-.5s-.4.2-.4.4Z"/>
      <path d="M2.4,24.7c-.2-.1-.3.1-.4.3-.1.3.1.4.4.4.2,0,.3-.1.3-.4-.1-.1-.2-.2-.3-.3Z"/>
      <path d="M2.2,55.4c.2.1.3.1.4,0,.2-.3.1-.5-.1-.6-.2-.1-.4,0-.5.1-.1.2,0,.4.2.5Z"/>
      <path d="M2.3,13.4c-.2,0-.3.2-.4.3,0,.2.1.3.2.3.3,0,.4-.2.4-.3.2-.2.1-.4-.2-.3Z"/>
      <path d="M2.4,32.2c-.3,0-.5.2-.5.4,0,.3.2.4.5.4s.5-.2.5-.4-.2-.3-.5-.4Z"/>
      <path d="M2.9,36.3c0-.2-.2-.3-.4-.4-.3,0-.5.1-.5.4s.2.5.4.5c.3,0,.5-.2.5-.5Z"/>
      <path d="M2.3,44.1c.2,0,.3-.1.4-.3,0-.2,0-.4-.2-.4-.1,0-.3.1-.4.2-.2.3-.1.4.2.5Z"/>
      <path d="M2.4,58.5c-.3,0-.5.2-.5.4,0,.3.2.4.5.4.2,0,.5-.1.5-.4,0-.2-.2-.4-.5-.4Z"/>
      <path d="M2,40.1c0,.2.1.3.3.4.2,0,.3-.1.4-.3,0-.2-.1-.4-.3-.4s-.4.1-.4.3Z"/>
      <path d="M2.4,47.8c.2,0,.2-.2.2-.4s-.2-.3-.4-.3-.3.2-.3.3c.1.4.3.5.5.4Z"/>
      <path d="M2.4,6.6c.2,0,.5-.2.4-.4,0-.3-.2-.4-.5-.4-.2.1-.4.2-.3.5,0,.1.2.3.4.3Z"/>
      <path d="M2.4,2.8c.2,0,.3-.2.3-.4s-.1-.3-.3-.3c-.3,0-.4.1-.4.3,0,.3.1.4.4.4Z"/>
      <path d="M.7,52.8c-.3,0-.5.1-.5.4s.2.4.4.5c.2,0,.5,0,.5-.3,0-.4-.2-.6-.4-.6Z"/>
      <path d="M9.9,28.5c-.2,0-.3.2-.3.3,0,.3.1.4.4.5.2,0,.3-.1.3-.3,0-.4-.1-.5-.4-.5Z"/>
      <path d="M2.4,9.5c-.3,0-.4.2-.4.5,0,.2.2.3.3.4.3,0,.5-.1.5-.4s-.1-.5-.4-.5Z"/>
      <path d="M2,17.5c0,.2.1.3.3.3s.3-.2.3-.4-.1-.3-.3-.3-.3.2-.3.4Z"/>
      <path d="M2.3,29.3c.3,0,.4-.2.4-.5-.1-.2-.2-.3-.4-.3-.3,0-.4.2-.4.5.1.2.2.3.4.3Z"/>
      <path d="M2.3,21.7c.2,0,.3-.1.3-.3s-.1-.3-.3-.3c-.2-.1-.3,0-.3.2s.1.4.3.4Z"/>
      <path d="M9.9,21.6c.2,0,.3-.1.4-.3,0-.2-.1-.3-.3-.3-.1,0-.2.1-.3.2-.1.2,0,.4.2.4Z"/>
      <path d="M10,2.7c.2,0,.3-.2.3-.4s-.1-.3-.3-.3-.3.2-.3.4.1.4.3.3Z"/>
      <path d="M10,5.9c-.2,0-.3.1-.3.3s.1.3.3.4c.2,0,.3-.1.3-.3,0-.3-.1-.4-.3-.4Z"/>
      <path d="M7.8,42c0,.3.2.4.5.3.2-.1.4-.2.4-.5-.1-.3-.3-.4-.5-.3-.3,0-.5.2-.4.5Z"/>
      <path d="M4.3,31.2c.3,0,.4-.2.4-.5s-.2-.5-.4-.5c-.3,0-.5.2-.5.5,0,.3.2.4.5.5Z"/>
      <path d="M9.9,24.7c-.2,0-.3.2-.3.4,0,.3.2.4.4.4.2-.1.3-.2.3-.4,0-.2-.1-.4-.4-.4Z"/>
      <path d="M9.7,17.6c0,.1.2.2.3.2.2,0,.3-.1.3-.3s-.1-.3-.3-.3c-.3,0-.4.2-.3.4Z"/>
      <path d="M10.3,13.8c0-.2-.1-.3-.2-.4-.2-.1-.3.1-.4.3,0,.2,0,.3.2.4.3,0,.4-.1.4-.3Z"/>
      <path d="M10,10.3c.2,0,.3-.2.3-.4s-.1-.3-.3-.4c-.2,0-.4.1-.4.3,0,.4.1.5.4.5Z"/>
      <path d="M6.2,6.6c.3,0,.4-.2.4-.5s-.2-.4-.5-.4c-.2.1-.4.3-.4.6,0,.2.3.3.5.3Z"/>
      <path d="M8.2,7.7c-.3,0-.5.1-.5.4,0,.2.2.3.4.4.3,0,.5-.1.5-.4,0-.2-.2-.3-.4-.4Z"/>
      <path d="M6.2,54.6c-.3,0-.4.2-.4.5,0,.4.2.5.5.5s.4-.2.4-.5-.2-.5-.5-.5Z"/>
      <path d="M4.3.9c.2,0,.5,0,.5-.3s-.1-.5-.4-.5-.5.1-.5.4c-.1.2.1.4.4.4Z"/>
      <path d="M6.2,2.8c.3,0,.4-.2.5-.4,0-.2-.2-.4-.5-.4-.2,0-.3.3-.3.5s.1.3.3.3Z"/>
      <path d="M8.1.9c.3,0,.4-.2.4-.5,0-.2-.1-.3-.3-.3-.3,0-.4.2-.4.5-.1.2.1.3.3.3Z"/>
      <path d="M8,4.6c.3.1.4,0,.5-.3,0-.3-.1-.5-.4-.5-.3,0-.4.2-.4.5,0,.1.1.3.3.3Z"/>
      <path d="M7.8,53.5c.2.2.5.1.6,0,.2-.3.1-.5-.1-.6-.2-.2-.5-.1-.6.1-.1.2-.1.4.1.5Z"/>
      <path d="M19.4.9c.3,0,.5-.1.5-.4S19.7.1,19.5,0c-.3.1-.5.3-.5.6,0,.2.2.3.4.3Z"/>
      <path d="M34.4,46.1c.3,0,.5-.1.5-.4s-.1-.5-.4-.5-.5.1-.5.4.2.5.4.5Z"/>
      <path d="M34.6,34.9c.3,0,.4-.2.4-.5-.1-.3-.3-.4-.5-.3-.3,0-.4.2-.4.5,0,.2.2.3.5.3Z"/>
      <path d="M32.6,2.9c.3,0,.5-.2.5-.4,0-.3-.2-.4-.5-.5-.3,0-.5.2-.5.4.1.3.3.5.5.5Z"/>
      <path d="M30.8,7.7c-.3,0-.4.2-.5.4,0,.2.1.3.3.4.3,0,.5-.1.5-.4.1-.2,0-.4-.3-.4Z"/>
      <path d="M34.5,27.4c.3,0,.5-.2.5-.4,0-.3-.2-.4-.5-.4s-.5.2-.5.4.3.4.5.4Z"/>
      <path d="M34.6,30.4c-.2,0-.3.2-.3.3,0,.3.2.4.5.3.2-.1.3-.2.2-.4-.1-.1-.2-.2-.4-.2Z"/>
      <path d="M34.5,8.5c.3,0,.5-.2.5-.5s-.3-.4-.5-.4c-.3.1-.4.2-.3.5,0,.2.2.4.3.4Z"/>
      <path d="M30.7,3.8c-.3,0-.4.2-.4.5s.3.4.5.4c.3,0,.4-.2.4-.5-.1-.2-.3-.4-.5-.4Z"/>
      <path d="M30.6,31.1c.3,0,.5-.1.5-.4s-.1-.4-.4-.5c-.3.1-.4.2-.4.5,0,.3.1.4.3.4Z"/>
      <path d="M30.6.9c.2,0,.5-.1.5-.4S31,0,30.7.1c-.3,0-.4.2-.5.5.1.1.2.2.4.3Z"/>
      <path d="M28.8,51.7c.2,0,.3-.1.4-.2.1-.2-.1-.3-.3-.4-.2,0-.3.1-.4.2,0,.2.1.3.3.4Z"/>
      <path d="M28.8,47.9c.2,0,.3-.1.3-.2,0-.3-.1-.4-.3-.4s-.3.1-.4.3c.1.2.2.3.4.3Z"/>
      <path d="M28.8,55.4c.2,0,.5-.1.4-.4,0-.1-.2-.2-.3-.3-.3,0-.4.2-.4.3,0,.3.1.4.3.4Z"/>
      <path d="M28.8,62.2c-.3,0-.4.2-.4.5s.3.4.5.4c.3,0,.4-.2.4-.5s-.2-.4-.5-.4Z"/>
      <path d="M34.5,4.7c.3.1.5-.1.5-.4,0-.2-.2-.3-.4-.3s-.3.1-.4.3c0,.1.1.3.3.4Z"/>
      <path d="M30.6,42.3c.2,0,.4-.1.4-.2.1-.3,0-.5-.3-.6-.2,0-.4.1-.4.3-.1.2,0,.4.3.5Z"/>
      <path d="M30.7,46.1c.2,0,.3-.2.3-.4,0-.3-.2-.5-.5-.4-.2,0-.3.2-.3.4.1.2.2.4.5.4Z"/>
      <path d="M36.3,40.5c.3.1.5,0,.5-.3s-.1-.5-.4-.5-.4.2-.5.4c0,.3.2.4.4.4Z"/>
      <path d="M36.5,9.5c-.3-.1-.5.1-.5.3-.1.3.1.5.4.5.3.1.5-.1.5-.4,0-.2-.1-.4-.4-.4Z"/>
      <path d="M38.1,42.2c.2.1.3.1.5-.1.1-.2,0-.4-.1-.5-.2-.1-.3-.1-.5.1-.1.2,0,.4.1.5Z"/>
      <path d="M38.1,4.6c.3.1.5,0,.5-.3,0-.1-.1-.3-.2-.4-.2,0-.4.1-.4.3-.1.2-.1.3.1.4Z"/>
      <path d="M36.5,54.7c-.2,0-.4.2-.4.3-.1.3.1.4.4.5.3,0,.5-.1.5-.4s-.3-.4-.5-.4Z"/>
      <path d="M38.3.9c.2.1.3-.1.4-.3,0-.2-.1-.3-.2-.4-.2-.1-.3.1-.4.3-.1.2,0,.3.2.4Z"/>
      <path d="M38.3,23.5c.2,0,.3-.2.3-.4s-.1-.3-.4-.3c-.2.1-.3.2-.3.4.1.2.2.4.4.3Z"/>
      <path d="M34.5.9c.2.1.4-.1.5-.3,0-.2-.2-.3-.3-.3-.2,0-.3.1-.4.3-.1.1,0,.3.2.3Z"/>
      <path d="M21.6,6.2c-.1-.1-.1-.3-.2-.3-.1-.1-.4,0-.4.1-.1.3,0,.4.3.5.1.1.3-.1.3-.3Z"/>
      <path d="M38.3,7.7c-.2,0-.3.1-.4.3,0,.2.1.4.3.4s.3-.1.4-.3c0-.2-.1-.3-.3-.4Z"/>
      <path d="M34.7,15.9c.2,0,.2-.2.2-.4-.1-.2-.2-.3-.4-.3s-.3.2-.3.4c0,.3.2.4.5.3Z"/>
      <path d="M36.4,5.8c-.2,0-.3.1-.4.3,0,.3.1.5.4.5s.4-.1.5-.4c-.1-.3-.3-.4-.5-.4Z"/>
      <path d="M34.6,12.2c.2,0,.3-.1.3-.4-.1-.1-.2-.2-.3-.3-.2-.1-.3,0-.4.2,0,.3.1.5.4.5Z"/>
      <path d="M34.5,19.1c-.1,0-.3.2-.3.3,0,.3.2.4.4.3s.2-.2.2-.4c.1-.1-.1-.2-.3-.2Z"/>
      <path d="M34.5,22.7c-.3.1-.5.3-.4.7.1.3.3.4.6.3s.4-.3.3-.6c0-.3-.2-.5-.5-.4Z"/>
      <path d="M36.5,2.9c.3,0,.4-.2.4-.5,0-.2-.1-.3-.4-.3-.3-.1-.5,0-.5.3s.2.4.5.5Z"/>
      <path d="M36.4,36.8c.3,0,.5-.1.5-.4s-.2-.4-.5-.4-.5.1-.5.4c.1.2.3.4.5.4Z"/>
      <path d="M28.9,43.3c-.3,0-.4.2-.4.5,0,.2.2.3.4.3.3,0,.4-.2.4-.5-.1-.1-.2-.3-.4-.3Z"/>
      <path d="M38.4,26.7c-.2-.1-.3.1-.4.2,0,.2.1.3.2.4.2.1.3-.1.4-.2,0-.2-.1-.4-.2-.4Z"/>
      <path d="M22.8,15.7c0,.2.1.3.3.4.3,0,.4-.1.4-.4,0-.2-.1-.3-.3-.4-.2,0-.4.1-.4.4Z"/>
      <path d="M23.4,19.4c0-.1-.1-.2-.2-.2-.2-.1-.3.1-.4.3,0,.2.1.3.3.3.2-.1.3-.2.3-.4Z"/>
      <path d="M23,23.6c.3.1.5-.1.5-.4,0-.2-.1-.3-.2-.3-.3,0-.4.1-.5.3-.1.1,0,.3.2.4Z"/>
      <path d="M23.3,11.5c-.2-.1-.3-.1-.5,0-.2.2-.1.4.2.6.2.1.3,0,.4-.2.1-.1.1-.3-.1-.4Z"/>
      <path d="M28.8,59.3c.3,0,.5-.1.5-.4s-.2-.4-.4-.4c-.1,0-.3.2-.4.3-.1.2,0,.4.3.5Z"/>
      <path d="M25.1,2.8c.1,0,.4-.1.4-.2.1-.3-.1-.4-.3-.5-.2,0-.4.1-.4.2-.1.3,0,.5.3.5Z"/>
      <path d="M25.2,10.4c.2,0,.3-.2.3-.4,0-.3-.1-.4-.4-.5-.3.1-.4.2-.4.5s.2.4.5.4Z"/>
      <path d="M25.1,6.6c.3-.1.4-.3.3-.6-.1-.2-.2-.3-.4-.2-.3.1-.4.3-.3.6.1.1.2.2.4.2Z"/>
      <path d="M21.5,2.8c.2,0,.3-.2.3-.4,0-.4-.2-.6-.6-.6-.3,0-.5.2-.5.5.2.5.5.6.8.5Z"/>
      <path d="M21.3,21c-.1,0-.3.1-.3.1-.1.2,0,.4.3.3.1,0,.1-.1.2-.2-.1,0-.1-.2-.2-.2Z"/>
      <path d="M21.3,13.4c-.2.1-.3.2-.3.4s.1.3.3.3.3-.2.3-.4c0-.2-.1-.4-.3-.3Z"/>
      <path d="M21.4,17.1c-.2,0-.3.1-.3.1-.1.4,0,.6.2.6.2.1.3-.1.4-.3-.1-.2-.1-.3-.3-.4Z"/>
      <path d="M21.3,10.3c.2,0,.3-.1.4-.3,0-.2-.1-.3-.3-.3s-.3.1-.3.3c-.2.1,0,.3.2.3Z"/>
      <path d="M23.2,27.4c.2,0,.4-.2.4-.4,0-.3-.2-.4-.5-.4-.2,0-.4.1-.4.4s.2.4.5.4Z"/>
      <path d="M25.3,24.7c-.3-.2-.5,0-.6.2-.1.3,0,.4.2.6.2.1.4,0,.6-.2.1-.3,0-.5-.2-.6Z"/>
      <path d="M23.2,4.6c.2,0,.3-.2.3-.4s-.2-.3-.3-.3c-.2,0-.4.1-.4.3-.1.3.1.5.4.4Z"/>
      <path d="M23.2.9c.2,0,.3-.2.3-.4s-.1-.3-.3-.3-.4.1-.4.3c-.1.3.1.5.4.4Z"/>
      <path d="M23.2,8.4c.2-.1.2-.2.2-.4-.1-.2-.2-.3-.4-.3-.1.1-.3.2-.3.4,0,.2.3.4.5.3Z"/>
      <path d="M28.9,13.3c-.3,0-.4.2-.4.5,0,.2.2.3.4.3.3,0,.4-.2.4-.2-.1-.4-.3-.6-.4-.6Z"/>
      <path d="M28.9,9.6c-.3,0-.4.2-.4.4s.1.3.3.4c.3,0,.4-.1.4-.4,0-.2-.1-.4-.3-.4Z"/>
      <path d="M28.5,17.5c-.1.2.1.3.2.4.2,0,.3-.1.4-.2.1-.2-.1-.3-.2-.4-.1-.1-.3,0-.4.2Z"/>
      <path d="M28.8,25.4c.3,0,.4-.2.4-.4,0-.3-.2-.4-.4-.4s-.3.2-.3.4c0,.3.1.4.3.4Z"/>
      <path d="M28.9,21.7c.3-.1.4-.2.4-.5s-.2-.4-.5-.4-.4.2-.4.5.2.4.5.4Z"/>
      <path d="M28.9,2.9c.3,0,.5-.2.4-.5,0-.3-.3-.4-.5-.4-.3,0-.4.2-.4.5s.3.3.5.4Z"/>
      <path d="M28.8,39.7c-.3,0-.4.2-.4.5,0,.2.2.3.4.3.3,0,.5-.1.5-.4-.1-.2-.2-.4-.5-.4Z"/>
      <path d="M28.9,36c-.3,0-.5.2-.5.4,0,.3.2.4.5.4.2,0,.3-.1.4-.3,0-.3-.2-.5-.4-.5Z"/>
      <path d="M27,16c.2,0,.3-.1.4-.3,0-.3-.1-.5-.4-.5s-.5.1-.5.4c.1.3.3.4.5.4Z"/>
      <path d="M26.9,11.8c-.1.2,0,.4.3.3.1,0,.1-.2.2-.2-.1-.1-.1-.2-.2-.2-.1,0-.3,0-.3.1Z"/>
      <path d="M27,4.7c.3,0,.5-.1.5-.4-.1-.3-.3-.4-.5-.4s-.4.1-.4.3c-.1.3.1.5.4.5Z"/>
      <path d="M28.8,29.3c.3,0,.5-.2.5-.4,0-.3-.2-.5-.4-.4-.1,0-.3.2-.3.3-.2.3-.1.5.2.5Z"/>
      <path d="M27,31.2c.3,0,.5-.2.4-.5,0-.3-.3-.4-.5-.4-.3.1-.5.2-.4.5,0,.3.3.4.5.4Z"/>
      <path d="M27.1,8.5c.3,0,.4-.2.4-.5,0-.2-.2-.3-.4-.3-.3,0-.5.2-.5.4s.2.4.5.4Z"/>
      <path d="M28.9,5.7c-.3,0-.5.1-.5.4s.1.5.4.5c.2,0,.4-.1.5-.4,0-.2-.1-.4-.4-.5Z"/>
      <path d="M27,.9c.3,0,.4-.1.4-.2,0-.4-.1-.6-.3-.6-.3,0-.4.1-.4.4s.1.4.3.4Z"/>
      <path d="M28.9,33.1c.3,0,.5-.2.5-.4,0-.3-.2-.4-.5-.4s-.4.2-.5.4c0,.2.2.4.5.4Z"/>
      <path d="M8,49.2c-.2,0-.3.2-.3.4s.2.3.4.2c.2,0,.3-.2.3-.4-.1-.2-.2-.3-.4-.2Z"/>
      <path d="M15.3,30.6c0,.3.1.4.3.4.2.1.4-.1.4-.2.1-.3-.1-.5-.4-.5-.2.1-.3.2-.3.3Z"/>
      <path d="M15.7,34.9c.2,0,.4-.2.4-.4,0-.3-.2-.4-.5-.4-.2,0-.4.1-.4.3.1.4.2.5.5.5Z"/>
      <path d="M15.8,60.4c-.3-.1-.5.1-.5.4,0,.2.1.3.3.4.2,0,.3-.1.4-.3,0-.2-.1-.4-.2-.5Z"/>
      <path d="M15.3,56.9c-.1.3.1.5.4.5.2,0,.3-.1.4-.6,0,0-.2-.1-.4-.2-.2,0-.4.2-.4.3Z"/>
      <path d="M15.9,22.8c-.5.1-.7.2-.6.4,0,.3.2.4.5.3.2-.1.3-.2.2-.4-.1-.1-.2-.3-.1-.3Z"/>
      <path d="M15.7,8.4c.2,0,.3-.1.3-.3,0-.3-.1-.4-.3-.5s-.4.1-.4.3c-.1.3.1.5.4.5Z"/>
      <path d="M15.8,26.6c-.3,0-.4.1-.5.3,0,.2.1.4.2.4.3.1.5-.1.5-.4,0-.1-.1-.3-.2-.3Z"/>
      <path d="M15.7,15.2c-.3-.1-.4.1-.5.4,0,.2.1.3.3.3s.3-.1.4-.3c.1-.1,0-.3-.2-.4Z"/>
      <path d="M15.7,49c-.3,0-.4.2-.4.4s.2.3.3.3c.3,0,.4-.2.4-.4s-.2-.3-.3-.3Z"/>
      <path d="M15.6,19.9c.3,0,.4-.2.4-.5s-.1-.5-.4-.5-.4.2-.4.5c0,.3.1.5.4.5Z"/>
      <path d="M19.5,27.4c.2,0,.3-.1.4-.3,0-.3-.1-.4-.4-.5-.2,0-.3.1-.4.3-.1.3.1.5.4.5Z"/>
      <path d="M19.9,12.1c0-.3-.1-.4-.4-.5-.2,0-.4.1-.4.3,0,.3.1.5.4.5.2,0,.4-.1.4-.3Z"/>
      <path d="M19.5,23.6c.3,0,.4-.2.4-.5,0-.2-.2-.3-.4-.4-.3.1-.4.2-.4.5s.2.4.4.4Z"/>
      <path d="M19.5,16c.2,0,.3-.1.4-.3,0-.3-.1-.5-.4-.5-.2,0-.3.1-.4.3,0,.3.1.5.4.5Z"/>
      <path d="M15.8,52.8c-.3-.1-.5.1-.5.3,0,.1.1.4.2.4.2.1.4-.1.4-.1.1-.4,0-.6-.1-.6Z"/>
      <path d="M15.5,46c.3.1.5,0,.5-.3,0-.2-.1-.3-.1-.3-.4-.1-.5,0-.6.2-.1.1,0,.3.2.4Z"/>
      <path d="M15.7,42.2c.2,0,.3-.1.4-.3,0-.2-.1-.3-.3-.4-.2-.1-.4.1-.4.3-.2.3,0,.4.3.4Z"/>
      <path d="M17.6,62.3c-.3,0-.4.1-.4.3s.1.4.2.4c.3.1.4-.1.5-.4,0-.1-.1-.2-.3-.3Z"/>
      <path d="M13.7,32.2c-.3,0-.4.2-.4.5,0,.2.2.3.4.4.3.1.5-.1.5-.4s-.2-.5-.5-.5Z"/>
      <path d="M13.8,44.1c.2,0,.3-.1.3-.1.1-.4,0-.6-.2-.7-.2-.1-.4,0-.4.2-.2.4,0,.6.3.6Z"/>
      <path d="M13.8,14.1c.2,0,.3-.2.3-.3-.1-.3-.2-.3-.4-.3-.2.1-.2.3-.1.4,0,.1.1.2.2.2Z"/>
      <path d="M13.5,17.6c.1.2.2.3.4.2.3-.1.4-.3.3-.5,0-.2-.2-.3-.4-.2-.3.1-.4.2-.3.5Z"/>
      <path d="M13.8,40.5c.3-.1.4-.2.3-.5,0-.2-.2-.3-.4-.3-.3,0-.4.2-.3.5.1.2.2.3.4.3Z"/>
      <path d="M11.9,57.4c.2,0,.3-.1.3-.3s-.1-.3-.3-.3-.3.1-.3.3c0,.1.1.3.3.3Z"/>
      <path d="M11.7,37.9c-.2.1-.3.2-.3.4s.1.4.4.4.4-.2.4-.5c-.1-.2-.3-.3-.5-.3Z"/>
      <path d="M11.8,53.5c.3,0,.4-.2.4-.5,0-.2-.1-.3-.3-.3-.3,0-.4.2-.4.5,0,.2.1.3.3.3Z"/>
      <path d="M13.7,47.9c.2.1.3,0,.4-.2.1-.2,0-.4-.1-.5-.2-.1-.4-.1-.5.1-.2.2-.1.5.2.6Z"/>
      <path d="M13.8,29.2c.2,0,.3-.1.4-.3,0-.2-.1-.4-.2-.4-.3-.1-.5.1-.5.3-.1.3.1.4.3.4Z"/>
      <path d="M15.5,12.2c.3.1.5,0,.5-.3s-.1-.5-.4-.5-.5.1-.5.4c.1.2.2.3.4.4Z"/>
      <path d="M13.3,21.4c.1.3.3.3.5.3s.3-.1.3-.4-.2-.4-.5-.4c-.2,0-.3.2-.3.5Z"/>
      <path d="M13.7,36c-.2,0-.3.2-.3.4,0,.3.2.4.5.5.3,0,.4-.2.4-.5-.2-.4-.4-.5-.6-.4Z"/>
      <path d="M13.7,59.3c.3.1.4-.1.4-.4-.1-.3-.2-.4-.5-.4s-.4.2-.3.5c.1.1.3.3.4.3Z"/>
      <path d="M13.7,25.5c.3,0,.5-.1.5-.4s-.2-.5-.5-.4c-.2,0-.3.2-.4.3-.1.3.1.5.4.5Z"/>
      <path d="M19.5,30.4c-.3,0-.4.1-.4.4,0,.2.1.3.3.3.3,0,.4-.1.4-.4,0-.2-.1-.3-.3-.3Z"/>
      <path d="M13.7,51.7c.3,0,.4-.1.4-.3s-.1-.3-.3-.3c-.3,0-.5.1-.4.4,0,.1.2.1.3.2Z"/>
      <path d="M13.8,55.4c.2,0,.3-.1.4,0-.2-.5-.3-.6-.5-.6-.2.1-.2.3-.1.4,0,.1.1.2.2.2Z"/>
      <path d="M25.1,47.1c-.3,0-.5.2-.5.4,0,.1.2.3.3.4.3.1.4,0,.5-.3.1-.3,0-.5-.3-.5Z"/>
      <path d="M23.2,52.9c-.2,0-.3.1-.3.3s.1.3.3.3.3-.1.3-.3-.1-.3-.3-.3Z"/>
      <path d="M23.1,49.7c.2,0,.3-.1.4-.3,0-.2,0-.4-.2-.4-.3-.1-.5.1-.5.4-.1.2.1.3.3.3Z"/>
      <path d="M23.3,45.3c-.3-.1-.5,0-.5.3,0,.2.1.4.3.4.3.1.5-.1.5-.3-.1-.2-.1-.4-.3-.4Z"/>
      <path d="M25.1,62.3c-.3,0-.4.2-.4.5,0,.2.2.3.4.3.3,0,.4-.2.4-.5-.1-.2-.3-.4-.4-.3Z"/>
      <path d="M23,56.8c-.2,0-.3.2-.2.4,0,.2.2.3,0,.3.6-.1.7-.2.7-.4-.1-.3-.3-.4-.5-.3Z"/>
      <path d="M23.2,60.4c-.2,0-.3.1-.4.3s0,.4.2.4c.3.1.5,0,.5-.3,0-.2-.1-.3-.3-.4Z"/>
      <path d="M23.1,30.4c-.2,0-.4.1-.4.3,0,.3.2.4.4.4s.3-.2.3-.2c0-.4-.1-.5-.3-.5Z"/>
      <path d="M23.1,42.2c.2,0,.3-.1.4-.3,0-.2-.1-.4-.2-.4s-.4.1-.4.2c-.3.3-.1.5.2.5Z"/>
      <path d="M12,45.2c-.3,0-.5.1-.5.2-.1.3.1.5.4.5.2,0,.4-.1.4-.3,0-.1-.1-.3-.3-.4Z"/>
      <path d="M25.1,51.7c.2,0,.3-.1.4-.3,0-.3-.1-.5-.4-.5-.2,0-.3.2-.3.3-.1.3,0,.5.3.5Z"/>
      <path d="M25.1,54.8c-.2,0-.3.2-.3.3,0,.3.2.4.4.4.2-.1.3-.2.3-.4s-.2-.3-.4-.3Z"/>
      <path d="M23.1,37.9c-.2,0-.3.2-.3.4,0,.3.2.4.5.3.1,0,.2-.3.2-.4-.1-.3-.2-.4-.4-.3Z"/>
      <path d="M19.6,34.9c.3,0,.4-.2.3-.5,0-.1-.2-.3-.3-.3-.2,0-.5.1-.5.4s.2.4.5.4Z"/>
      <path d="M25.1,17.9c.3,0,.4-.2.4-.2-.1-.5-.2-.6-.4-.6-.3,0-.4.2-.4.5,0,.1.2.3.4.3Z"/>
      <path d="M25,21.7c.3.1.4,0,.5-.3,0-.3-.1-.5-.3-.5-.3,0-.4.2-.4.4-.1.1,0,.3.2.4Z"/>
      <path d="M24.9,58.5c-.2.1-.3.2-.2.4.1.3.3.4.5.3.2,0,.3-.2.2-.4,0-.2-.2-.4-.5-.3Z"/>
      <path d="M25.1,14.1c.3,0,.4-.2.4-.2-.1-.5-.2-.6-.4-.6-.3,0-.4.2-.4.5,0,.2.2.3.4.3Z"/>
      <path d="M25.1,43.4c-.2,0-.3.1-.3.3,0,.3.2.4.5.4.2-.1.3-.2.3-.3-.2-.3-.3-.4-.5-.4Z"/>
      <path d="M19.1,45.6c0,.3.2.4.4.4.3,0,.4-.2.4-.4,0-.3-.2-.5-.5-.4-.2.1-.3.2-.3.4Z"/>
      <path d="M19.5,49.8c.3,0,.4-.2.3-.5,0-.1-.2-.3-.3-.3-.3,0-.4.1-.4.4,0,.2.2.4.4.4Z"/>
      <path d="M19.5,52.9c-.2,0-.3.1-.3.3s.1.3.3.3.3-.1.3-.3-.1-.3-.3-.3Z"/>
      <path d="M19.4,41.5c-.2,0-.3.1-.3.3,0,.3.1.5.4.5.2,0,.3-.1.4-.3-.1-.3-.2-.5-.5-.5Z"/>
      <path d="M19.6,57.4c.3-.1.4-.3.3-.5,0-.3-.2-.4-.5-.4-.3.1-.4.3-.4.5.1.3.3.4.6.4Z"/>
      <path d="M19.6,18.9c-.3,0-.4.2-.4.5,0,.2.1.3.3.3.3,0,.4-.2.4-.4s-.1-.4-.3-.4Z"/>
      <path d="M19.4,3.9c-.1,0-.3.2-.4.3-.1.3.1.4.3.5.3,0,.5-.1.5-.4.1-.2-.1-.4-.4-.4Z"/>
      <path d="M19.5,7.7c-.3,0-.4.2-.4.5,0,.1.2.3.4.3.3.1.4-.1.5-.4-.1-.2-.3-.4-.5-.4Z"/>
      <path d="M23.2,34.1c-.2,0-.4.1-.4.3-.1.3.1.5.4.5.2,0,.3-.1.3-.3-.1-.3-.1-.4-.3-.5Z"/>
      <path d="M21.3,58.5c-.1,0-.3.2-.4.3-.1.3,0,.5.3.5s.5-.1.5-.4c.1-.3-.1-.5-.4-.4Z"/>
      <path d="M21.4,55.6c.3,0,.4-.3.4-.6-.1-.3-.2-.5-.5-.4s-.4.3-.4.6.2.5.5.4Z"/>
      <path d="M21.4,36c-.3,0-.5.1-.5.4s.2.4.5.4c.2,0,.3-.1.4-.3,0-.3-.1-.5-.4-.5Z"/>
      <path d="M21.1,62.3c-.1,0-.3.2-.3.3-.1.3.1.4.4.4s.4-.2.4-.4c0-.3-.2-.4-.5-.3Z"/>
      <path d="M21.3,40.5c.2,0,.3-.2.3-.4s-.1-.3-.4-.3c-.2.1-.3.2-.3.4.1.2.2.3.4.3Z"/>
      <path d="M21.3,47.1c-.2,0-.3.1-.3.3,0,.3.2.4.4.4.1,0,.2-.2.3-.3-.1-.3-.2-.4-.4-.4Z"/>
      <path d="M21.2,50.9c-.2,0-.3.2-.3.4s.2.3.4.3.3-.2.3-.2c0-.4-.1-.5-.4-.5Z"/>
      <path d="M21.3,44.1c.2,0,.3-.2.3-.4s-.2-.3-.4-.3-.3.2-.3.4.2.3.4.3Z"/>
      <path d="M25.1,39.7c-.3.1-.4.2-.4.5,0,.2.1.3.3.4.3,0,.5-.1.5-.4s-.1-.4-.4-.5Z"/>
      <path d="M4.2,26.6c-.2,0-.3.2-.3.4,0,.3.1.5.4.4.2,0,.3-.1.4-.3-.1-.3-.2-.5-.5-.5Z"/>
      <path d="M55.2,40.5c.2,0,.3-.2.4-.3,0-.3-.1-.5-.4-.5-.2,0-.3.2-.4.4,0,.3.1.4.4.4Z"/>
      <path d="M4.3,37.8c-.3,0-.4.2-.4.5,0,.2.2.3.4.3.3,0,.4-.2.4-.5-.1-.1-.2-.3-.4-.3Z"/>
      <path d="M4.2,34.1c-.3.1-.4.2-.4.5,0,.2.2.3.4.3.3,0,.5-.2.4-.4.1-.3-.1-.4-.4-.4Z"/>
      <path d="M4.4,46.1c.3,0,.4-.2.4-.5-.1-.3-.3-.4-.5-.4-.3,0-.4.2-.4.5s.2.4.5.4Z"/>
      <path d="M4.4,3.9c-.3-.1-.5.1-.5.4s.1.5.4.5.4-.1.5-.4c0-.3-.1-.5-.4-.5Z"/>
      <path d="M4.3,11.4c-.3,0-.4.2-.4.5,0,.2.2.3.4.3.3,0,.4-.2.4-.5-.1-.1-.3-.3-.4-.3Z"/>
      <path d="M4.3,19.9c.3,0,.4-.2.5-.5,0-.3-.2-.4-.4-.5-.3,0-.4.2-.5.5,0,.3.1.5.4.5Z"/>
      <path d="M4.4,22.7c-.3,0-.4.2-.5.4,0,.3.1.5.4.5s.4-.1.5-.4c-.1-.3-.2-.5-.4-.5Z"/>
      <path d="M6,14.1c.2.1.5,0,.6-.2.1-.3,0-.5-.3-.6-.2-.1-.4,0-.5.2s0,.4.2.6Z"/>
      <path d="M6.2,10.4c.3,0,.4-.2.4-.5,0-.2-.2-.3-.3-.3-.3,0-.4.2-.4.5,0,.2.1.3.3.3Z"/>
      <path d="M4.3,15.2c-.3,0-.4.2-.4.5.1.2.2.3.4.3.3,0,.4-.1.5-.4-.1-.3-.2-.4-.5-.4Z"/>
      <path d="M6.1,47.1c-.1.1-.3.3-.3.4,0,.3.2.4.5.4s.4-.2.4-.5c-.1-.2-.3-.4-.6-.3Z"/>
      <path d="M4.3,57.5c.4,0,.5-.3.5-.6s-.2-.4-.5-.4-.5.2-.4.5c0,.2.1.5.4.5Z"/>
      <path d="M4.3,49.8c.2,0,.3-.1.4-.3,0-.2-.1-.3-.2-.4-.2-.1-.4,0-.4.1-.2.4-.1.6.2.6Z"/>
      <path d="M4.3,60.3c-.3,0-.4.2-.4.5s.2.4.4.4c.3,0,.5-.2.4-.5.1-.2-.2-.4-.4-.4Z"/>
      <path d="M4.3,53.7c.3,0,.4-.2.5-.4,0-.3-.1-.5-.4-.6-.3,0-.4.2-.5.5,0,.2.1.5.4.5Z"/>
      <path d="M.5,56.5c-.3,0-.4.2-.4.5s.2.4.4.5c.3,0,.6-.2.5-.5,0-.4-.2-.5-.5-.5Z"/>
      <path d="M4.4,7.8c-.2-.1-.4.1-.5.3,0,.2.1.4.3.4.3,0,.4-.1.5-.4.1-.2-.1-.3-.3-.3Z"/>
      <path d="M.5,38.7c.2,0,.3-.1.4-.3,0-.2-.1-.3-.3-.4-.2,0-.3.1-.4.3,0,.2.1.4.3.4Z"/>
      <path d="M.7,19.7c.2,0,.3-.1.4-.3,0-.2-.1-.4-.3-.4-.3,0-.5.1-.4.4-.1.2.1.3.3.3Z"/>
      <path d="M.7,49.8c.2,0,.3-.1.3-.4,0-.2-.2-.4-.4-.4-.3,0-.5.2-.4.5,0,.2.2.3.5.3Z"/>
      <path d="M.5,45.2c-.3.1-.4.3-.3.5.1.1.3.3.4.3.3,0,.5-.2.4-.4,0-.3-.3-.4-.5-.4Z"/>
      <path d="M.6,15.2c-.3,0-.4.2-.4.5,0,.2.2.3.3.4.3-.1.5-.1.5-.4s-.2-.5-.4-.5Z"/>
      <path d="M.6,34.9c.3,0,.4-.2.3-.5,0-.2-.2-.3-.3-.3-.3,0-.5.1-.5.4,0,.2.2.4.5.4Z"/>
      <path d="M.5,31.1c.3,0,.4-.2.4-.5,0-.2-.2-.3-.4-.3-.3.1-.4.2-.4.5.1.2.2.3.4.3Z"/>
      <path d="M.5,23.6c.3,0,.5,0,.5-.3s-.2-.4-.4-.4c-.3,0-.4.2-.4.4-.1.2.1.3.3.3Z"/>
      <path d="M.6,11.4c-.3.1-.4.2-.4.5,0,.2.2.3.4.3.3,0,.4-.2.4-.5-.1-.1-.2-.2-.4-.3Z"/>
      <path d="M6.3,50.9c-.2-.1-.3.1-.4.2-.1.3,0,.5.3.6.2,0,.3-.1.4-.2.1-.3,0-.5-.3-.6Z"/>
      <path d="M.5,60.4c-.1.1-.3.2-.3.4,0,.3.2.4.5.4.2-.1.3-.2.3-.5-.1-.3-.3-.4-.5-.3Z"/>
      <path d="M2.3,62.2c-.2,0-.3.2-.4.4,0,.3.2.5.4.5.3,0,.4-.2.5-.5,0-.3-.2-.4-.5-.4Z"/>
      <path d="M.5,42.3c.2,0,.3-.1.4-.3,0-.3-.1-.5-.4-.5-.2,0-.4.1-.4.3-.1.3.1.4.4.5Z"/>
      <path d="M.4,27.4c.3,0,.5-.1.5-.4s-.2-.5-.4-.4c-.1,0-.3.2-.4.3-.1.3.1.4.3.5Z"/>
      <path d="M.5,7.6c-.2.1-.3.2-.4.4,0,.3.1.5.4.5.2,0,.3-.1.4-.3,0-.4-.1-.6-.4-.6Z"/>
      <path d="M.5,4.7c.3,0,.4-.2.4-.5,0-.2-.1-.3-.4-.4-.3,0-.4.2-.4.5s.2.4.4.4Z"/>
      <path d="M8.1,12.2c.3,0,.4-.2.4-.5-.1-.2-.2-.3-.4-.3-.3,0-.4.2-.4.5,0,.2.2.4.4.3Z"/>
      <path d="M9.9,47.1c-.2,0-.3.1-.3.3,0,.3.1.5.4.5.2,0,.3-.1.3-.3,0-.3-.1-.5-.4-.5Z"/>
      <path d="M6.3,43.4c-.2,0-.4.1-.4.3s.1.3.3.3.3-.1.4-.3c.1-.1-.1-.3-.3-.3Z"/>
      <path d="M10,51.6c.2,0,.3-.1.3-.4-.1-.2-.2-.3-.4-.3-.1,0-.2.2-.2.3,0,.2.1.4.3.4Z"/>
      <path d="M10,58.5c-.3,0-.4.2-.4.5,0,.2.2.3.4.3.3,0,.4-.2.4-.5-.1-.2-.2-.3-.4-.3Z"/>
      <path d="M10.1,62.3c-.2-.1-.3.1-.4.3,0,.2,0,.4.2.4.2.1.3-.1.4-.3,0-.1,0-.3-.2-.4Z"/>
      <path d="M8.1,38.7c.2,0,.3-.1.3-.4s-.2-.4-.5-.4c-.2,0-.3.2-.3.4.1.2.3.4.5.4Z"/>
      <path d="M8.1,27.4c.2,0,.3-.1.3-.3,0-.3-.1-.4-.4-.5-.3,0-.5.2-.5.4.2.2.4.4.6.4Z"/>
      <path d="M7.8,34.6c0,.2.2.3.4.3s.3-.1.4-.3c0-.2-.1-.4-.3-.4-.4-.1-.6.1-.5.4Z"/>
      <path d="M8,31.1c.3,0,.5-.1.5-.4,0-.2-.1-.3-.3-.4-.3,0-.5.1-.5.4,0,.2.1.3.3.4Z"/>
      <path d="M11.8,19.7c.2,0,.3-.1.4-.3,0-.2-.1-.3-.3-.3s-.3.1-.3.3c-.1.2,0,.3.2.3Z"/>
      <path d="M11.8,23.6c.3,0,.4-.1.4-.3,0-.3-.1-.4-.3-.4-.3,0-.4.2-.4.4s.1.3.3.3Z"/>
      <path d="M11.9,27.4c.2-.1.3-.2.3-.4,0-.3-.2-.4-.5-.4-.2,0-.3.2-.3.4.1.2.3.4.5.4Z"/>
      <path d="M11.8,31.1c.2.1.3-.1.4-.3,0-.2-.1-.3-.2-.4-.2-.1-.3.1-.4.2-.1.2,0,.4.2.5Z"/>
      <path d="M12.1,11.9c0-.1-.1-.2-.2-.3-.2-.1-.3,0-.3.2,0,.1.1.2.1.3.3.1.4,0,.4-.2Z"/>
      <path d="M11.8,16c.2.1.3-.1.4-.3,0-.2-.2-.3-.4-.3-.1,0-.2.2-.2.3.1.1.2.2.2.3Z"/>
      <path d="M12.2,49.5c0-.3-.1-.5-.4-.5-.2,0-.3.1-.4.3,0,.3.1.5.4.5.2,0,.3-.1.4-.3Z"/>
      <path d="M12,7.8c-.2-.1-.3.1-.4.2,0,.2,0,.4.2.4.2.1.3-.1.4-.3,0-.1,0-.3-.2-.3Z"/>
      <path d="M9.9,55.3c.3.1.4-.1.4-.2,0-.2-.1-.3-.2-.4-.2-.1-.3.1-.4.3,0,.1.1.3.2.3Z"/>
      <path d="M6.3,24.8c-.2,0-.3.2-.3.4s.2.3.4.3.3-.2.3-.4c-.1-.2-.2-.4-.4-.3Z"/>
      <path d="M6,17.8c.2.1.5,0,.6-.2.1-.3,0-.5-.3-.6-.2-.1-.4,0-.5.1-.1.4,0,.6.2.7Z"/>
      <path d="M6.2,36.8c.3,0,.4-.2.5-.4,0-.3-.2-.5-.5-.4-.3,0-.5.2-.5.4,0,.3.2.4.5.4Z"/>
      <path d="M6.2,21c-.2,0-.3.2-.3.4s.2.3.4.3c.2-.1.3-.2.3-.4s-.1-.3-.4-.3Z"/>
      <path d="M6.3,62.2c-.3,0-.5.1-.5.4,0,.2.2.4.3.4.3.1.5,0,.6-.3,0-.2-.1-.4-.4-.5Z"/>
      <path d="M6.3,40.5c.2,0,.3-.2.3-.4,0-.1-.2-.1-.3-.2-.2.1-.3.3-.3.5.1,0,.2.1.3.1Z"/>
      <path d="M8.2,22.8c-.3,0-.4.1-.5.4,0,.2.1.4.3.4.3,0,.4-.1.5-.4,0-.2-.1-.4-.3-.4Z"/>
      <path d="M6.3,32.3c-.2,0-.4.1-.4.3.1.2.2.4.4.4s.3-.1.4-.3c0-.3-.2-.4-.4-.4Z"/>
      <path d="M6.7,28.8c0-.1-.2-.3-.3-.3-.3-.1-.4.1-.4.4s.2.4.4.4c.2-.1.3-.3.3-.5Z"/>
      <path d="M6.3,59.4c.3,0,.4-.2.4-.5s-.3-.4-.5-.4c-.3,0-.4.2-.4.5,0,.2.2.3.5.4Z"/>
      <path d="M11.8,41.5c-.2,0-.3.2-.2.4,0,.2.2.3.4.3s.3-.2.3-.4c-.2-.2-.3-.3-.5-.3Z"/>
      <path d="M8,19.7c.2,0,.4-.1.4-.3.1-.3-.1-.5-.3-.5s-.4.1-.4.3c-.1.3,0,.5.3.5Z"/>
      <path d="M.5,1c.3,0,.6-.1.6-.5C1.1.2.8.1.6.1c-.3,0-.5.1-.6.4v.3c.1.1.3.2.5.2Z"/>
      <path d="M8.1,16c.2,0,.3-.1.4-.3,0-.3-.1-.5-.4-.5-.2,0-.3.1-.4.3,0,.3.1.5.4.5Z"/>
      <path d="M8.1,45.2c-.3.1-.4.3-.3.5,0,.2.1.3.3.3.3,0,.4-.2.4-.4s-.2-.4-.4-.4Z"/>
      <path d="M8.2,60.4c-.2-.1-.4,0-.5.1-.2.2-.1.5.1.6s.5.1.6-.2c.2-.2.1-.4-.2-.5Z"/>
      <path d="M8.1,57.3c.2,0,.3-.1.3-.4-.1-.2-.2-.3-.4-.3s-.3.2-.3.4.2.3.4.3Z"/>
      <path d="M4.3,41.4c-.3,0-.4.2-.4.5,0,.2.1.3.3.4.3,0,.5-.1.5-.4,0-.3-.1-.5-.4-.5Z"/>
      <path d="M47.4,55c-.1.2,0,.3.2.3.1,0,.2-.1.2-.2-.1-.1-.1-.2-.2-.3,0,.1-.1.1-.2.2Z"/>
      <path d="M47.7,43.5c-.3,0-.4.2-.4.3,0,.2.1.3.3.3s.3-.2.3-.3c0-.2-.1-.3-.2-.3Z"/>
      <path d="M47.7,36.1c-.2,0-.4,0-.4.2-.1.2.1.3.3.4.2,0,.3-.1.4-.2.1-.2-.1-.3-.3-.4Z"/>
      <path d="M47.6,40.4c.2,0,.3-.1.4-.3,0-.2-.1-.4-.3-.4s-.4.1-.4.3.1.4.3.4Z"/>
      <path d="M47.5,47.9c.2.1.3-.1.4-.2.1-.3-.1-.5-.4-.4-.2,0-.3.1-.3.3.1.1.2.2.3.3Z"/>
      <path d="M47.9,51.2c0-.2-.1-.3-.3-.3-.3,0-.4.2-.4.4s.1.3.3.3c.3,0,.4-.2.4-.4Z"/>
      <path d="M47.6,5.8c-.2,0-.3.1-.3.4.1.1.2.2.3.3.2.1.3-.1.4-.2,0-.3-.1-.5-.4-.5Z"/>
      <path d="M47.3,9.9c0,.3.1.5.4.5.2,0,.3-.2.4-.3,0-.3-.1-.5-.4-.5-.3-.1-.4.1-.4.3Z"/>
      <path d="M47.6,29.2c.2,0,.3-.2.3-.3,0-.2-.1-.3-.2-.3-.3,0-.4.2-.4.3,0,.1.1.3.3.3Z"/>
      <path d="M47.5,21c-.1,0-.1.2-.2.3,0,.2.2.3.4.2.1,0,.2-.2.1-.3,0-.1-.1-.3-.3-.2Z"/>
      <path d="M47.7,17.1c-.2,0-.4.1-.4.3s0,.3.2.4c.2,0,.4-.1.4-.3.1-.2,0-.3-.2-.4Z"/>
      <path d="M47.6,62.3c-.2.1-.3.2-.3.4s.1.3.4.3c.2,0,.3-.2.3-.4-.1-.2-.2-.3-.4-.3Z"/>
      <path d="M47.6,13.3c-.2,0-.3.2-.3.4,0,.3.1.5.4.5s.4-.2.4-.5c-.1-.4-.3-.5-.5-.4Z"/>
      <path d="M47.7,24.7c-.3,0-.4.2-.4.5,0,.2.1.3.4.4.3,0,.4-.2.4-.4-.1-.4-.2-.5-.4-.5Z"/>
      <path d="M47.6,58.5c-.2,0-.3.2-.3.3,0,.3.1.5.4.5s.4-.2.4-.4c-.1-.3-.3-.4-.5-.4Z"/>
      <path d="M47.7,32.2c-.3,0-.4.2-.4.5s.2.4.5.4c.2,0,.3-.2.3-.4,0-.3-.2-.5-.4-.5Z"/>
      <path d="M45.9,45.3c-.3,0-.5.1-.5.4s.2.5.4.5c.3,0,.4-.2.4-.5,0-.3-.1-.4-.3-.4Z"/>
      <path d="M45.8,37.9c-.2-.1-.4.1-.4.3-.1.3,0,.5.3.5.2,0,.3-.1.3-.3.1-.3,0-.5-.2-.5Z"/>
      <path d="M49.5,60.4c-.2,0-.3.1-.3.3,0,.3.2.4.4.4s.3-.2.3-.4c-.1-.2-.2-.3-.4-.3Z"/>
      <path d="M45.9,42.2c.2-.1.3-.2.3-.4-.1-.3-.3-.4-.6-.3-.2.1-.3.2-.3.4.1.3.4.4.6.3Z"/>
      <path d="M45.7,19.1c-.2,0-.3.2-.3.4s.1.3.4.3c.2,0,.3-.2.3-.4-.1-.2-.2-.3-.4-.3Z"/>
      <path d="M45.8,27.3c.2,0,.3-.1.3-.3s-.1-.3-.3-.4-.3.1-.4.3c-.1.2.1.4.4.4Z"/>
      <path d="M45.6,22.9c-.1,0-.2.3-.2.4,0,.2.2.3.2.3.4,0,.5-.2.5-.4,0-.3-.2-.4-.5-.3Z"/>
      <path d="M45.7,60.4c-.2,0-.3.1-.3.3,0,.3.2.4.4.4s.3-.2.3-.4c-.1-.1-.2-.2-.4-.3Z"/>
      <path d="M43.6,55.1c0,.2.1.3.3.3.3.1.4-.2.4-.4s-.1-.3-.3-.4c-.3,0-.4.2-.4.5Z"/>
      <path d="M45.7,34.1c-.2,0-.3.1-.3.3s.1.3.3.4c.2.1.4-.1.4-.3,0-.2-.1-.4-.4-.4Z"/>
      <path d="M44.4,51.2c0-.3-.2-.4-.5-.4s-.4.2-.4.5.2.4.5.4.4-.2.4-.5Z"/>
      <path d="M45.7,49.7c.2,0,.3-.1.4-.3,0-.2,0-.4-.2-.4-.3-.1-.5.1-.5.4,0,.2.1.3.3.3Z"/>
      <path d="M45.6,3.9c-.2,0-.3.2-.4.3,0,.3.1.5.4.5s.4-.2.5-.4c0-.3-.2-.4-.5-.4Z"/>
      <path d="M45.7,57.4c.2.1.4-.1.4-.2.1-.3-.1-.5-.4-.5-.2,0-.3.1-.3.3s.1.4.3.4Z"/>
      <path d="M45.6,31.1c.2.1.3-.1.4-.2.1-.3,0-.5-.3-.6-.2-.1-.3,0-.4.2,0,.3.1.5.3.6Z"/>
      <path d="M45.8,53.5c.2,0,.3-.2.3-.4s-.2-.3-.3-.3c-.2,0-.3.1-.3.3-.1.3,0,.5.3.4Z"/>
      <path d="M44.1,62.3c-.3,0-.5.1-.5.3,0,.3.1.4.4.5.2,0,.5-.1.5-.3,0-.3-.2-.5-.4-.5Z"/>
      <path d="M45.6,7.7c-.2.1-.3.2-.2.4,0,.3.3.4.5.3.2-.1.2-.3.2-.4-.1-.2-.3-.3-.5-.3Z"/>
      <path d="M45.6,12.3c.3,0,.4-.1.5-.4,0-.2-.1-.5-.3-.5-.3,0-.5.1-.5.4,0,.2,0,.4.3.5Z"/>
      <path d="M45.7,16c.3,0,.4-.2.4-.5-.1-.3-.2-.4-.5-.4-.2,0-.3.2-.3.4,0,.3.1.5.4.5Z"/>
      <path d="M53.4,37.9c-.1,0-.4,0-.5.1-.2.2-.1.5.2.6.2.1.5,0,.6-.2.1-.3-.1-.5-.3-.5Z"/>
      <path d="M53.3,42.2c.2,0,.3-.2.3-.4s-.2-.3-.4-.3-.4.1-.4.3c0,.3.2.5.5.4Z"/>
      <path d="M55.5,28.7c-.1-.2-.2-.3-.4-.2-.3.1-.4.3-.3.6.1.2.2.3.4.2.3-.2.4-.4.3-.6Z"/>
      <path d="M53.3,60.5c-.2,0-.3,0-.4.2-.1.2,0,.4.2.4.3.1.5,0,.5-.3,0-.1-.2-.2-.3-.3Z"/>
      <path d="M53.1,46c.2.1.4-.1.4-.3.1-.3,0-.5-.4-.5-.2,0-.3.1-.3.3,0,.3.1.4.3.5Z"/>
      <path d="M53.2,56.5c-.3,0-.4.2-.4.5,0,.1.2.3.3.4.3.1.4-.1.4-.4.1-.3,0-.5-.3-.5Z"/>
      <path d="M53.2,53.5c.2,0,.3-.1.3-.2,0-.4-.1-.6-.4-.6-.2,0-.3.1-.4.3.1.3.2.5.5.5Z"/>
      <path d="M53.2,48.9c-.3,0-.4.2-.4.5,0,.2.1.3.3.4.3,0,.5-.1.5-.4.1-.3-.1-.4-.4-.5Z"/>
      <path d="M53.3,15.1c-.3,0-.5.2-.4.5,0,.3.3.4.5.4s.3-.2.3-.4c0-.3-.2-.4-.4-.5Z"/>
      <path d="M55.1,47.9c.2,0,.3-.1.4-.3,0-.2-.1-.3-.3-.3-.1,0-.2.1-.3.2-.1.2,0,.4.2.4Z"/>
      <path d="M55.2,54.6c-.3,0-.4.3-.3.5,0,.2.2.3.4.3.3-.1.4-.3.3-.5-.1-.2-.3-.3-.4-.3Z"/>
      <path d="M55,44.1c.3,0,.4-.1.5-.4,0-.2-.1-.4-.3-.4-.3,0-.5.1-.5.4,0,.2.1.4.3.4Z"/>
      <path d="M55.1,50.9c-.3,0-.4.3-.3.5.1.2.2.3.3.3.3,0,.5-.2.5-.4s-.2-.4-.5-.4Z"/>
      <path d="M55.1,13.3c-.3.1-.4.3-.3.5.1.1.3.3.4.3.3,0,.4-.2.4-.5,0-.2-.3-.3-.5-.3Z"/>
      <path d="M55.1,21.7c.3.1.4-.1.5-.4,0-.3-.1-.5-.3-.5-.3,0-.4.1-.5.4s0,.4.3.5Z"/>
      <path d="M55.1,17.9c.3,0,.5-.1.5-.4s-.2-.4-.4-.4-.3.1-.4.3c-.1.3,0,.4.3.5Z"/>
      <path d="M55.1,32.2c-.3,0-.4.2-.4.5,0,.2.2.3.4.3.3,0,.4-.2.4-.5,0-.2-.2-.4-.4-.3Z"/>
      <path d="M53.3,22.8c-.2,0-.4.1-.4.3-.1.2,0,.4.2.5.3.1.5,0,.5-.3,0-.2-.1-.4-.3-.5Z"/>
      <path d="M51.4,47.1c-.2,0-.4.1-.4.3,0,.3.1.5.4.4.1,0,.2-.2.3-.3,0-.2-.1-.4-.3-.4Z"/>
      <path d="M51.3,33c.3,0,.4-.2.4-.5-.1-.3-.3-.4-.5-.4s-.3.2-.3.4c0,.3.1.5.4.5Z"/>
      <path d="M51.4,43.4c-.3,0-.4.2-.4.5,0,.2.2.3.4.3.3,0,.4-.2.4-.5-.1-.2-.2-.3-.4-.3Z"/>
      <path d="M51.5,24.8c-.3-.1-.5.1-.5.4,0,.2.1.3.3.4.2,0,.3-.1.4-.4,0-.2-.1-.4-.2-.4Z"/>
      <path d="M51.4,36.8c.3,0,.5-.1.5-.4s-.2-.5-.4-.5c-.3,0-.6.1-.6.5,0,.3.2.4.5.4Z"/>
      <path d="M51.4,29.2c.1,0,.3-.2.3-.4,0-.3-.2-.4-.5-.4-.3.1-.4.2-.4.5.1.3.4.4.6.3Z"/>
      <path d="M50.9,21.3c0,.3.2.4.5.4s.4-.2.3-.5c0-.2-.2-.3-.4-.3s-.4.1-.4.4Z"/>
      <path d="M53.5,30.8c.1-.3-.1-.5-.4-.5-.2,0-.3.1-.3.3,0,.3.1.4.3.4.2.2.4,0,.4-.2Z"/>
      <path d="M25.1,36.8c.2,0,.3-.2.3-.4s-.1-.3-.3-.3-.4.1-.4.3c0,.3.2.4.4.4Z"/>
      <path d="M49.5,56.5c-.2,0-.3.1-.3.3,0,.3.1.5.4.5s.4-.1.4-.4c0-.3-.2-.4-.5-.4Z"/>
      <path d="M53.3,27.4c.2,0,.3-.1.4-.3,0-.3-.1-.5-.4-.5s-.5.2-.5.4c0,.3.2.4.5.4Z"/>
      <path d="M53.3,19c-.3-.1-.4.1-.5.4s.1.5.3.5c.3.1.4-.1.5-.4,0-.3,0-.5-.3-.5Z"/>
      <path d="M51.5,39.9c-.2,0-.3.1-.4.3-.1.2.1.3.3.4.3,0,.5-.1.5-.4-.1-.2-.2-.3-.4-.3Z"/>
      <path d="M53.1,34.8c.3,0,.4-.1.4-.3s-.1-.4-.3-.4c-.3-.1-.5.1-.5.4.1.2.3.3.4.3Z"/>
      <path d="M51.5,54.6c-.3,0-.5.1-.5.4s.2.4.5.4c.2,0,.3-.1.4-.3-.1-.2-.2-.4-.4-.5Z"/>
      <path d="M51.4,62.4c-.3-.1-.4.1-.5.3,0,.2.1.3.3.3s.3-.1.4-.3c0-.1,0-.3-.2-.3Z"/>
      <path d="M51.4,58.6c-.3,0-.4.2-.4.4s.2.3.4.3.3-.2.3-.3c0-.3-.1-.4-.3-.4Z"/>
      <path d="M51.8,17.4c-.1-.1-.3-.3-.4-.3-.3,0-.4.2-.4.5s.3.4.5.4c.3-.2.5-.4.3-.6Z"/>
      <path d="M30.8,57.4c.2,0,.3-.2.4-.4,0-.3-.2-.4-.5-.4-.2,0-.3.1-.3.4-.1.3.1.4.4.4Z"/>
      <path d="M30.3,53.2c0,.2.1.3.3.4.3,0,.5-.1.5-.4s-.1-.5-.4-.5c-.2,0-.4.2-.4.5Z"/>
      <path d="M32.5,17.9c.3,0,.4-.2.4-.4s-.1-.4-.3-.4c-.3,0-.4.2-.4.4s.1.4.3.4Z"/>
      <path d="M30.7,49c-.2,0-.3.2-.3.3,0,.3.1.4.4.5.2,0,.3-.1.3-.3,0-.3-.2-.5-.4-.5Z"/>
      <path d="M31,15.7c0-.2-.1-.3-.3-.4-.2,0-.3.1-.4.3,0,.2.1.3.3.4.2,0,.4-.1.4-.3Z"/>
      <path d="M32.6,14.1c.2,0,.3-.1.3-.3,0-.3-.1-.4-.3-.4s-.3.1-.4.3c.1.3.2.4.4.4Z"/>
      <path d="M30.8,11.5c-.3-.1-.4.1-.5.4,0,.2.1.3.3.4.3,0,.4-.1.5-.3,0-.3-.2-.5-.3-.5Z"/>
      <path d="M30.8,27.4c.2,0,.3-.2.3-.4-.1-.3-.2-.4-.5-.4-.2,0-.3.2-.3.4,0,.3.2.4.5.4Z"/>
      <path d="M32.6,29.3c.3,0,.4-.2.4-.5-.1-.3-.2-.4-.5-.4-.2,0-.3.2-.3.4s.2.4.4.5Z"/>
      <path d="M32.6,50.9c-.2,0-.3.2-.3.4,0,.3.1.5.4.5.2,0,.3-.1.4-.3-.1-.4-.3-.6-.5-.6Z"/>
      <path d="M32.2,55.1c0,.2.1.3.3.4.2,0,.4-.1.4-.2.1-.3,0-.5-.3-.6-.2-.1-.4.1-.4.4Z"/>
      <path d="M32.5,32.2c-.2,0-.3.2-.3.4,0,.3.1.4.4.4.2,0,.3-.1.3-.4.1-.2-.1-.4-.4-.4Z"/>
      <path d="M32.3,43.9c0,.2.2.3.4.3.3,0,.4-.2.4-.5-.1-.2-.2-.3-.4-.3-.3,0-.5.2-.4.5Z"/>
      <path d="M30.6,22.8c-.2,0-.3.2-.3.4,0,.3.2.4.4.4s.3-.2.3-.4c.1-.3-.1-.4-.4-.4Z"/>
      <path d="M32.5,59.3c.3,0,.4-.1.4,0,0-.6-.1-.8-.3-.8-.3,0-.5.1-.5.4.1.2.2.3.4.4Z"/>
      <path d="M32.6,39.7c-.3,0-.4.2-.4.4s.1.4.3.4c.3,0,.4-.1.4-.4.1-.2-.1-.4-.3-.4Z"/>
      <path d="M32.6,21.7c.3,0,.5-.2.4-.5,0-.2-.2-.3-.3-.4-.3-.1-.4.1-.5.4,0,.3.1.5.4.5Z"/>
      <path d="M32.6,24.8c-.2,0-.3.2-.3.3,0,.3.2.4.4.4s.3-.2.3-.3c0-.3-.1-.5-.4-.4Z"/>
      <path d="M27.1,34.9c.2,0,.3-.1.3-.3,0-.3-.2-.4-.4-.4s-.3.2-.3.4c-.1.2.1.3.4.3Z"/>
      <path d="M26.7,57c-.1.3.1.5.4.4.2,0,.3-.2.3-.4s-.1-.3-.3-.4c-.2.1-.3.2-.4.4Z"/>
      <path d="M27,49c-.2,0-.3.1-.4.3,0,.3.1.4.4.5.2,0,.3-.1.4-.3,0-.3-.1-.5-.4-.5Z"/>
      <path d="M27.1,38.7c.3,0,.4-.2.4-.5,0-.2-.2-.3-.4-.3-.3,0-.5.1-.5.4,0,.2.2.4.5.4Z"/>
      <path d="M27.3,53.1c-.2-.1-.3,0-.4.2,0,.1.1.2.1.3.1,0,.3-.1.3-.1.1-.2,0-.4,0-.4Z"/>
      <path d="M30.8,19.1c-.3,0-.4.1-.4.4,0,.2.1.3.3.4.3,0,.4-.1.4-.4,0-.3-.2-.4-.3-.4Z"/>
      <path d="M27,60.3c-.2,0-.5.1-.5.4s.2.4.4.4c.3,0,.5-.1.5-.4.1-.1-.1-.3-.4-.4Z"/>
      <path d="M25.2,28.5c-.3,0-.4.2-.5.4,0,.2.1.4.3.4.3,0,.4-.2.4-.3.1-.4-.1-.5-.2-.5Z"/>
      <path d="M25.2,32.3c-.3,0-.4.1-.4.4,0,.2.1.3.3.4.3,0,.4-.2.4-.4s-.1-.4-.3-.4Z"/>
      <path d="M30.7,38.7c.2,0,.3-.2.3-.4,0-.3-.2-.5-.4-.4-.2,0-.3.2-.3.4,0,.2.2.4.4.4Z"/>
      <path d="M27.1,22.8c-.2,0-.3.1-.4.3-.1.3.1.5.4.5.2,0,.3-.1.4-.3,0-.3-.2-.5-.4-.5Z"/>
      <path d="M30.8,60.4c-.3,0-.5.1-.5.4s.1.5.4.5c.2,0,.5-.1.5-.4,0-.3-.2-.5-.4-.5Z"/>
      <path d="M31,34.6c0-.3-.1-.5-.4-.5-.1,0-.3.2-.4.3,0,.3.1.5.4.5.3,0,.4-.1.4-.3Z"/>
      <path d="M27.1,41.5c-.3.1-.4.2-.4.5,0,.2.1.3.3.4.3,0,.5-.1.5-.4s-.2-.5-.4-.5Z"/>
      <path d="M27.1,45.2c-.3-.1-.4.1-.5.4,0,.3.1.5.4.5.1,0,.3-.2.4-.3.1-.3,0-.5-.3-.6Z"/>
      <path d="M27.1,18.9c-.2-.1-.4,0-.4.2-.1.3,0,.5.3.6.2,0,.3,0,.4-.2.1-.3,0-.5-.3-.6Z"/>
      <path d="M27.1,26.5c-.3,0-.5.1-.5.4s.1.4.4.5c.3,0,.4-.1.5-.4-.1-.2-.2-.4-.4-.5Z"/>
      <path d="M42.2,53.5c.1,0,.2-.3.2-.3,0-.3-.2-.4-.4-.4-.1.1-.3.2-.3.3,0,.3.2.5.5.4Z"/>
      <path d="M40.2,50.9c-.2,0-.3.1-.3.3s.1.3.2.4c.3,0,.4-.1.4-.3,0-.2-.1-.4-.3-.4Z"/>
      <path d="M40.2,47.2c-.2-.1-.3.1-.4.3,0,.2.1.3.3.4.2.1.3-.1.4-.3,0-.2-.1-.4-.3-.4Z"/>
      <path d="M40.1,59.2c.2.1.3.1.4-.1.1-.2,0-.3-.1-.4-.2-.1-.3,0-.4.1-.2.1-.1.3.1.4Z"/>
      <path d="M40.2,40.5c.2,0,.3-.1.3-.3s-.1-.3-.3-.3-.3.1-.3.3c-.1.1.1.3.3.3Z"/>
      <path d="M40.2,54.7c-.2,0-.3.2-.3.4s.1.3.3.3.3-.2.3-.4-.1-.3-.3-.3Z"/>
      <path d="M36.5,51.1c-.3-.1-.4,0-.5.2s.1.4.3.4.4,0,.4-.2c.1-.3-.1-.4-.2-.4Z"/>
      <path d="M36.4,62.3c-.2,0-.3.1-.4.3-.1.3.1.4.4.5.3,0,.5-.1.5-.4-.1-.3-.3-.4-.5-.4Z"/>
      <path d="M36.4,59.3c.3,0,.5-.1.4-.4,0-.3-.2-.4-.5-.4-.2,0-.3.2-.3.5,0,.2.2.3.4.3Z"/>
      <path d="M42,60.4c-.3,0-.5.2-.5.5s.2.4.5.4.4-.2.5-.5c0-.3-.2-.5-.5-.4Z"/>
      <path d="M40.5,36.3c0-.2-.1-.3-.4-.3-.2,0-.3.2-.3.4s.2.3.4.3.3-.2.3-.4Z"/>
      <path d="M40.1,17.1c-.1,0-.2.2-.2.3,0,.2.1.4.3.4s.3-.2.3-.4c0-.2-.2-.3-.4-.3Z"/>
      <path d="M40.4,21.3c-.1-.1-.1-.2-.2-.2s-.3.1-.3.1c-.1.2,0,.3.3.3.1,0,.2-.2.2-.2Z"/>
      <path d="M41.6,57c0,.3.2.4.4.4s.4-.1.4-.3c0-.3-.1-.5-.4-.4-.2,0-.4.1-.4.3Z"/>
      <path d="M36.5,47.1c-.2-.1-.4.1-.4.2-.1.3.1.5.4.5.2,0,.3-.1.3-.2,0-.3-.1-.4-.3-.5Z"/>
      <path d="M40.1,24.8c-.2.1-.3.2-.2.4,0,.2.2.3.4.3s.3-.2.2-.4c-.1-.3-.2-.4-.4-.3Z"/>
      <path d="M40.2,28.5c-.2-.1-.4.1-.4.3s.1.3.3.4.3-.1.4-.3c0-.2-.1-.3-.3-.4Z"/>
      <path d="M40.1,14c.2,0,.3-.1.3-.1,0-.3-.1-.5-.2-.5-.2,0-.3.1-.4.3.1.1.2.3.3.3Z"/>
      <path d="M36.4,33.1c.3.1.5-.1.5-.4s-.1-.5-.4-.5c-.3-.1-.5.1-.5.4,0,.2.1.4.4.5Z"/>
      <path d="M33,6.2c0-.3-.1-.5-.4-.5-.2,0-.3.2-.3.4,0,.3.1.5.4.5.2,0,.3-.2.3-.4Z"/>
      <path d="M34.5,49.8c.3,0,.4-.2.4-.5,0-.1-.3-.2-.4-.2-.3.1-.5.2-.4.5,0,.1.3.2.4.2Z"/>
      <path d="M36.4,43.3c-.3.1-.4.3-.4.5.1.3.3.4.5.4.3,0,.4-.2.4-.5s-.3-.4-.5-.4Z"/>
      <path d="M34.6,60.4c-.3,0-.5.2-.5.5s.3.4.5.4c.3-.1.4-.2.3-.5,0-.3-.1-.5-.3-.4Z"/>
      <path d="M32.6,9.5c-.3,0-.4.3-.4.5s.1.3.4.3.4-.2.5-.4c-.1-.2-.2-.4-.5-.4Z"/>
      <path d="M34.5,56.5c-.3.1-.3.3-.3.6,0,.2.2.3.4.3.3,0,.4-.2.4-.5-.1-.2-.3-.4-.5-.4Z"/>
      <path d="M32.6,47.1c-.2,0-.3.2-.4.3,0,.3,0,.5.3.5s.5-.2.5-.4c.1-.3-.1-.4-.4-.4Z"/>
      <path d="M32.7,36c-.3,0-.5.2-.5.4,0,.3.2.4.5.4s.4-.2.4-.5c0-.2-.2-.3-.4-.3Z"/>
      <path d="M34.3,53.1c-.1.2,0,.3.2.4.2.1.3-.1.4-.3,0-.2-.1-.3-.3-.3-.1.1-.3.2-.3.2Z"/>
      <path d="M36.4,21c-.2,0-.3.1-.3.3,0,.3.1.5.4.4.2,0,.3-.2.3-.4,0-.2-.2-.3-.4-.3Z"/>
      <path d="M36.4,28.5c-.2,0-.3.2-.3.4,0,.3.2.4.5.3.2-.1.3-.2.2-.4-.1-.2-.2-.3-.4-.3Z"/>
      <path d="M36.9,25.2c0-.3-.1-.4-.4-.5-.3,0-.5.2-.5.4,0,.1.2.3.3.4.3.1.5,0,.6-.3Z"/>
      <path d="M32.7,62.2c-.3,0-.5.1-.5.4,0,.2.1.5.4.5s.5-.1.5-.4c0-.2-.1-.4-.4-.5Z"/>
      <path d="M36.7,13.9c.1-.1,0-.3-.1-.3-.2-.1-.4,0-.4.2,0,.1,0,.3.1.3.2,0,.3-.1.4-.2Z"/>
      <path d="M34.5,38.6c.3,0,.4-.2.4-.3,0-.3-.1-.4-.3-.4-.3-.1-.4.2-.4.4s.1.3.3.3Z"/>
      <path d="M36.1,17.5c.1.1.2.3.3.3.3.1.4-.1.4-.4,0-.2-.2-.3-.4-.3s-.3.2-.3.4Z"/>
      <path d="M34.2,41.8c-.1.3.1.5.4.5.2,0,.3-.1.4-.5-.1,0-.2-.1-.4-.2-.2-.1-.3,0-.4.2Z"/>
    </g>
  </g>
</svg>